<?xml version="1.0" encoding="utf-8"?>
<!-- Generator: Adobe Illustrator 23.1.0, SVG Export Plug-In . SVG Version: 6.00 Build 0)  -->
<svg version="1.1" id="Слой_1" xmlns="http://www.w3.org/2000/svg" xmlns:xlink="http://www.w3.org/1999/xlink" x="0px" y="0px"
	 viewBox="0 0 343.5 402.9" style="enable-background:new 0 0 343.5 402.9;" xml:space="preserve">
<style type="text/css">
	.st0{display:none;}
	.st1{fill:#FFFFFF;}
	.st2{display:none;fill:#FFFFFF;enable-background:new    ;}
	.st3{font-family:'Cassandra';}
	.st4{font-size:58.6282px;}
	.st5{enable-background:new    ;}
</style>
<rect y="0" class="st0" width="343.5" height="402.9"/>
<g id="Якорь">
	<path class="st1" d="M193.7,95.9c0.6,0,1.2,0,1.7,0c6.4,0.3,12.7,0.5,19.1,0.8c2.7,0.1,5.3,0.3,8,0.5c1.6,0.1,2.2,0.7,2.2,2.3
		c0,3.6,0,7.3,0,10.9c0,0.5-0.1,1.1-0.2,1.6c-0.1,0.7-0.4,1-1.1,1c-1.7,0.1-3.4,0.4-5.1,0.5c-4.4,0.2-8.7,0.3-13.1,0.6
		c-6.6,0.3-13.2,0.7-19.8,1c-7.6,0.4-15.2,0.5-22.9,0.1c-6.1-0.3-12.1-0.6-18.2-0.9c-0.5,0-1,0-1.6,0c0,1-0.3,1.9,0.7,2.7
		c1.6,1.2,2.5,2.9,2.9,4.8c0.3,1.4,1,2.4,2.2,3.2c1.6,1.1,2.7,2.7,3.3,4.5c0.3,0.9,0.7,1.6,1.7,2c2,1,3.6,2.6,4.4,4.8
		c0.2,0.4,0.5,0.8,0.9,1c1.4,0.8,2.8,1.6,4.2,2.4c0.1,0,0.2,0.1,0.3,0.1c0.3-7.8,0.6-15.6,0.9-23.5c0.8,0,1.5,0,2.4,0
		c-0.3,8-0.5,16-0.8,24c0.1,0,0.1,0,0.2,0c0.1-1.1,0.3-2.2,0.4-3.3c0.3-6.4,0.5-12.8,0.8-19.3c0-0.4,0.2-0.9,0.3-1.3
		c0.1,0,0.2,0,0.3,0c0.1,0.6,0.2,1.2,0.2,1.8c0,3.5-0.1,7-0.2,10.5c-0.1,4.8-0.1,9.5-0.2,14.3c0,0.6,0.1,0.9,0.7,1.1
		c0.4,0.1,0.7,0.3,1.2,0.5c0.1-9.3,0.2-18.6,0.2-27.9c2-0.1,3.9-0.2,5.9-0.3c0.5,11.2,0.9,22.3,1.4,33.4c0.1,0,0.1,0,0.2,0
		c0.1-0.4,0.2-0.8,0.2-1.2c-0.1-3.5-0.1-6.9-0.2-10.4c-0.2-6.4-0.5-12.9-0.7-19.3c0-0.8,0-1.7,0-2.6c0.9,0,1.8,0,2.7,0
		c0,0.1,0.1,0.3,0.1,0.5c0.4,9.2,0.7,18.4,1.1,27.7c0.1,1.6,0,3.2,0,4.8c0,0.9,0.1,1.8,0.3,2.8c0.2,1.1,0.8,1.8,1.9,2.1
		c0.7,0.2,1.4,0.4,2.1,0.7c1.8,0.5,3.3,1.6,4.4,3.2c0.7,1,1.6,1.7,2.8,2.1c2.5,0.9,4.5,2.5,5.6,4.9c0.4,0.8,1,1.3,1.8,1.8
		c2.5,1.3,4.1,3.3,4.7,6c0.3,1.2,0.8,2.1,1.7,3c1.7,1.7,2.7,3.8,2.5,6.2c-0.1,2.1,0.2,4.1,1,6.1c0.8,1.8,0.7,3.7,0,5.6
		c-0.6,1.6-0.9,3.2-0.7,5c0.2,2-0.6,3.7-1.9,5.2c-0.4,0.5-1,0.9-1.4,1.5c-0.6,0.8-1.2,1.6-1.7,2.5c-0.2,0.4-0.4,0.8-0.6,1.2
		c-1.1,2-2.7,3.3-4.9,3.8c-1.4,0.3-2.7,0.8-3.7,1.8c-1.9,1.9-4.2,2.6-6.8,2.6c-1.8,0-1.8,0.1-3,0.7c0-0.4-0.1-0.8-0.1-1.1
		c0-0.4,0-0.8-0.1-1.3c3.7,2,6.8,0.4,9.8-1.8c-0.3-0.2-0.5-0.5-0.8-0.6c-1.1-0.5-1.9-1.4-2.5-2.4c-0.8-1.4-2-2-3.5-1.9
		c-0.8,0-1.5,0-2.3,0c-0.3,0-0.6-0.1-1-0.1c0-0.6,0.2-0.8,0.7-0.8c0.9,0,1.8-0.1,2.7,0c0.4,0,0.8-0.1,1.1-0.4c0.5-0.4,1-0.8,1.4-1.2
		c0.8-0.7,1.6-1.2,2.7-1.4c1.6-0.3,2.8-1.1,3.5-2.7c0.6-1.5,1.6-2.9,3.1-3.7c0.1-0.1,0.2-0.4,0.2-0.6c0-1.5-0.1-3,0.1-4.5
		c0.1-0.9,0.6-1.8,0.8-2.7c0.1-0.3,0-0.7-0.1-1c-0.7-1.2-1-2.5-1.1-3.9c0-1,0-2-0.1-3c0-0.6-0.2-1.2-0.7-1.6
		c-1.8-1.5-2.6-3.6-3.2-5.7c-0.1-0.3-0.3-0.6-0.5-0.7c-2.4-1.3-4.4-3-5.5-5.7c-0.1-0.2-0.4-0.5-0.6-0.5c-2.7-0.6-4.7-2.3-6.5-4.3
		c-0.1-0.1-0.3-0.3-0.4-0.4c0,0-0.1,0-0.2,0c0,0.5,0,1,0,1.5c0.2,5.4,0.3,10.9,0.5,16.3c0.3,8.8,0.7,17.5,1,26.3
		c0.2,5.7,0.4,11.3,1.2,16.9c0.4,2.4,0.9,4.9,1.9,7.1c2.1,4.5,5.7,7,10.6,7.5c3.9,0.4,7.6-0.2,11.3-1.3c5.3-1.6,10.3-3.7,14.7-7.2
		c3.3-2.6,6.1-5.6,8.5-9c0.3-0.4,0.5-0.9,0.8-1.3c0.1-0.2,0.2-0.4,0.3-0.6c-5.3,0-10.6,0.6-15.8-1.5c0.3-0.2,0.5-0.4,0.7-0.5
		c2.5-1.7,5.1-3.4,7.6-5.1c3.4-2.2,6.3-4.9,9-7.9c4.9-5.5,8.8-11.7,11.5-18.7c0.7-1.9,1.3-3.8,2-5.8c0.1-0.2,0.2-0.4,0.4-0.8
		c0.5,0.8,0.9,1.4,1.2,2c3.2,6.7,5.4,13.8,6.1,21.3c0.6,7.6-0.3,15-2.4,22.3c-1.1,3.9-2.6,7.7-3.8,11.5c0,0.1-0.1,0.2-0.2,0.5
		c-0.5-0.7-1.1-1.2-1.4-1.8c-1.2-2.3-2.3-4.6-3.4-7c-0.4-0.9-0.7-1.8-1.1-2.8c-0.3,0.3-0.5,0.6-0.7,0.9c-1.5,2.6-3,5.2-4.6,7.7
		c-7.9,11.5-11,16-24.4,24.5c-5.4,3.4-11,6.1-16.8,8.8c-3.8,1.7-7.5,3.6-10.8,6.1c-5.4,3.9-9.5,8.9-12.6,14.7c0,0-0.1,0.1-0.2,0.2
		c-0.4-0.5-0.8-0.9-1.1-1.3c-1.7-2.4-3.3-4.9-5.1-7.2c-3.1-3.8-6.8-6.8-11.1-9.1c-5-2.7-10.2-5.2-15.3-7.7
		c-6.8-3.4-13.2-7.5-19-12.5c-5-4.4-8.9-9.5-12.5-15c-1.9-2.9-3.6-5.9-5.4-8.8c-0.2-0.4-0.5-0.7-0.8-1.2c-1.7,4.1-3,8.2-6,11.7
		c-0.2-0.4-0.3-0.6-0.4-0.9c-2.6-6.2-4.6-12.6-5.6-19.2c-1.6-10.6-0.6-20.9,3.5-30.8c0.8-1.9,1.7-3.7,2.5-5.6
		c0.2-0.4,0.5-0.7,0.8-1.2c0.3,0.8,0.6,1.5,0.8,2.2c1.4,3.8,2.7,7.7,4.7,11.3c2.1,4,4.8,7.6,7.7,11.1c3.3,4,7.3,7.4,11.7,10.1
		c1.7,1,3.4,2.1,5.1,3.2c0.3,0.2,0.6,0.5,1.1,0.8c-5.2,1.8-10.4,2-15.9,1.4c0.2,0.4,0.3,0.5,0.4,0.7c4.8,8.3,11.9,13.6,20.9,16.6
		c3.6,1.2,7.3,2.2,11.1,2.4c3,0.2,5.9-0.1,8.6-1.6c2.9-1.6,4.6-4.2,5.7-7.2c1.1-2.9,1.7-6,1.8-9.1c0.4-6.8,0.7-13.6,1-20.4
		c0.3-7.7,0.6-15.5,0.9-23.2c0.3-8,0.7-16,0.9-23.9c0.1-2.6,0.4-1.8-1.8-3.1c-1.6-0.9-2.9-2.1-3.9-3.7c-0.3-0.5-0.8-0.9-1.3-1.3
		c-0.7-0.4-1.4-0.8-2.1-1.1c-1.8-0.8-3-2.3-3.8-4c-0.4-0.9-1.1-1.5-1.9-2.1c-0.8-0.5-1.6-1-2.3-1.6c-1.3-1.1-2.1-2.6-2.6-4.2
		c-0.2-0.7-0.6-1.1-1.1-1.5c-2.4-1.6-4-3.7-4.3-6.6c-0.1-0.9-0.7-1.6-1.3-2.2c-1.2-1.1-2.2-2.4-2.6-4.1c-0.2-0.9-0.2-1.9-0.4-2.8
		c-0.3-1.8-0.2-1.9-2-2.2c-2-0.3-4.1-0.2-6.2-0.3c-1.7-0.1-3.4-0.2-5.1-0.3c-0.7,0-1.1-0.5-1.3-1.1c-0.2-0.6-0.3-1.2-0.3-1.8
		c0-3.6,0-7.3,0.1-10.9c0.1-2-0.1-1.9,2-2.1c2-0.2,4.1-0.2,6.1-0.3c0.6,0,1.1-0.1,1.7-0.2c0.8-0.2,1.2-0.6,1.2-1.4
		c0-0.7,0-1.4-0.1-2.2c-0.4-2.7-0.1-5.3,1.5-7.7c0.4-0.6,0.6-1.5,0.6-2.2c-0.1-2.9,1.1-5.1,3.1-7c0.8-0.7,1.3-1.6,1.6-2.7
		c0.6-2.8,2.3-4.6,4.8-5.8c0.6-0.3,1.2-0.8,1.5-1.4c0.9-2.2,2.6-3.5,4.6-4.4c1.1-0.5,1.4-1.1,1.5-2.2c0.4-8.3,4.3-14.6,11.4-18.9
		c14.8-9,32,0.7,35,15.5c0.8,3.9,0.6,7.8-0.7,11.5c-0.8,2.2-0.3,4.2,0.5,6.2c0.3,0.6,0.6,1.3,1,1.8c1.4,2.3,1.4,4.6,0.5,7.1
		c-0.2,0.5-0.2,1.1-0.1,1.6c0.8,2.6,0.3,5-1.1,7.4c-0.6,0.9-0.9,2-1.3,3C193.7,95.4,193.7,95.6,193.7,95.9z M167.6,156.1
		c0,0.4,0,0.7,0,0.9c-0.1,5.7-0.1,11.5-0.2,17.2c-0.2,14.5-0.5,29-0.7,43.5c-0.1,9.5-0.1,18.9-1.2,28.3c-0.3,2.4-0.6,4.7-1.5,7
		c-0.6,1.8-1.9,2.8-3.7,2.8c-2.4,0.1-4.8,0.1-7.2-0.1c-9.4-0.8-17.8-4.4-25.4-10c-4.8-3.6-9.2-7.6-12.9-12.3
		c-6.2-7.7-10.7-16.2-14.1-25.4c-0.6-1.5-1.1-3-1.6-4.7c0,0.2,0,0.3,0,0.4c0.6,2.1,1.1,4.3,1.8,6.4c4.4,12.9,11.4,24,21.6,33.2
		c4.3,3.9,9.1,6.9,14.2,9.6c5.6,2.9,11.4,5.2,17.4,7.2c5.6,1.9,10.7,4.6,14.4,9.4c0.2,0.2,0.4,0.4,0.7,0.7c0-0.3,0-0.4,0-0.5
		c0.1-11.1,0.1-22.3,0.2-33.4c0.1-17,0.2-34.1,0.3-51.1c0-9.1,0.1-18.2,0.1-27.4c0-0.2-0.1-0.6-0.2-0.7
		C168.9,156.7,168.3,156.4,167.6,156.1z M120.7,111.4c0.4,0,0.7,0,1,0c5.2,0.2,10.4,0.4,15.7,0.6c8.6,0.5,17.2,1,25.7,1.5
		c7.9,0.4,15.8,0.1,23.7-0.4c5.1-0.3,10.3-0.6,15.4-0.9c5.3-0.2,10.6-0.4,15.9-0.6c1.3-0.1,2.6-0.2,3.8-0.4c0.2,0,0.5-0.2,0.5-0.4
		c0.1-0.5,0.1-1.1,0.1-1.6c-0.4,0-0.6,0-0.9,0c-3.4,0.1-6.8,0.2-10.2,0.4c-7.9,0.3-15.7,0.6-23.6,0.9c-10.3,0.4-20.5,0.4-30.8,0.1
		c-10.8-0.4-21.5-0.8-32.3-1.2c-1.4-0.1-2.8,0-4.2,0C120.7,110,120.7,110.7,120.7,111.4z M150.6,70.9c-0.5,0.7-0.8,1.2-1.1,1.7
		c-0.6,1.2-1.5,2.2-2.7,2.7c-1.4,0.6-2.3,1.7-2.6,3.3c-0.4,1.8-1.4,3.3-2.9,4.3c-0.5,0.3-0.6,0.6-0.6,1.2c0.2,2.5-0.3,4.8-1.9,6.7
		c-0.2,0.2-0.2,0.5-0.2,0.7c0.3,1.5,0.6,3.1,0.9,4.7c0,0,0.1,0,0.2,0c2.3-0.1,4.5-0.2,6.8-0.3c6.5-0.3,12.9-0.7,19.4-1
		c3.6-0.2,7.2-0.2,10.8,0.1c2,0.2,4,0.1,6,0c1.5-0.1,1.8-0.4,1.9-1.9c0.2-2,0.7-3.9,2.3-5.4c0.4-0.4,0.4-0.7,0.3-1.3
		c-0.4-2-0.8-4,0-6.1c0.2-0.4-0.1-0.9-0.1-1.5c-2.7,1.7-4.9,3.6-8,4.2c0-0.1-0.1-0.2-0.1-0.3c-0.1-2.9-0.2-5.8-0.3-8.7
		c0-0.2,0.2-0.6,0.4-0.7c0.8-0.6,1.5-1.2,2.3-1.7c0.4-0.3,0.3-0.5,0.1-0.8c-0.5-0.8-1.1-1.6-1.6-2.4c-0.3-0.5-0.6-0.7-1.1-0.7
		c-1.4,0-2.6-0.4-3.8-1.2c-0.7-0.4-1.4-1-2.1-1.4c-0.2-0.1-0.6-0.2-0.8-0.1c-1.9,0.4-3.8,0.5-5.6-0.2c-1-0.4-1.8-0.4-2.6,0.2
		c-1.1,0.7-2.3,1.2-3.7,1.3c-0.5,0-1,0.1-1.6,0.1c0.4,1.2,1,2.2,1.7,3.1c1.1,1.4,2.4,2.6,3.9,3.5c0.6,0.4,0.9,0.8,0.9,1.6
		c-0.1,1.7-0.1,3.3-0.2,5c0,1.1,0,2.2,0,3.5C158.2,81.4,153.7,77.1,150.6,70.9z M244.5,204.6c-0.6,1.6-1.3,3.2-1.9,4.9
		c-2.7,7.5-6.3,14.5-11.1,20.9c-5.1,6.8-11.1,12.8-18.4,17.2c-6.5,3.9-13.5,6.7-21,7.9c-1.5,0.2-3.1,0.6-4.6,1.2
		c-1.6,0.6-2.3,2-2.4,3.8c1.2,0.2,2.3,0,3.4-0.3c4.1-0.9,7.9-2.4,11.7-4c9.6-4,18.3-9.5,25.5-17.1c7.1-7.6,12.5-16.2,16.4-25.9
		C243.2,210.4,244.1,207.6,244.5,204.6z M162.4,215.1c0,0-0.1,0-0.1,0c0,0.2,0,0.3,0,0.5c-0.3,3.4-0.5,6.9-0.8,10.3
		c-0.3,3.2-1.1,6.4-2.5,9.3c-1.7,3.4-4.2,5.9-8,6.7c-2.5,0.6-5,0.5-7.4,0c-2.9-0.6-5.8-1.4-8.7-2.1c-0.2-0.1-0.5-0.1-0.7-0.1
		c0.7,0.4,1.3,0.6,2,0.9c3,1.4,6.2,2.4,9.5,3c2.4,0.4,4.8,0.6,7.2-0.1c3.6-1.1,5.9-3.6,7.3-6.9c2.5-6.2,3.2-12.7,2.7-19.4
		C162.7,216.4,162.5,215.8,162.4,215.1z M209.5,239.9c0-0.1-0.1-0.2-0.1-0.2c-1,0.3-2.1,0.5-3.1,0.8c-3,1-6.1,1.7-9.3,1.8
		c-5.7,0.1-9.9-2.3-12.2-7.6c-0.8-1.8-1.4-3.8-1.9-5.7c-1-4.1-1.1-8.4-1.3-12.6c0-0.2,0-0.5,0-0.7c-0.1,0-0.2,0-0.2,0
		c-0.1,0.9-0.4,1.8-0.3,2.7c0.1,2.9,0.2,5.9,0.4,8.8c0.3,3,0.8,5.9,1.9,8.6c2.2,5.7,6.3,8.3,12.4,7.9c2.7-0.2,5.3-0.8,7.9-1.7
		C205.6,241.4,207.5,240.6,209.5,239.9z M186.3,61.3c-0.1-0.8-0.1-1.4-0.2-2c-0.8-6.3-5.5-11.4-11.7-12.4
		c-6.5-1.1-12.1,1.8-15.5,7.7c-0.2,0.4-0.4,0.8-0.5,1.3c-0.1,0.4,0,0.8,0,1.2c0.5,0,0.9,0,1.4-0.1c0.1,0,0.2-0.1,0.4-0.2
		c2.4-1.8,5.1-2.1,7.9-1.1c1.2,0.4,2.4,0.5,3.7,0.2c2.6-0.4,5,0.2,6.9,2c0.8,0.7,1.7,1.1,2.7,1.2c1.2,0.1,2.2,0.5,3.1,1.1
		C185.1,60.6,185.6,60.9,186.3,61.3z M159.1,138.5c-0.5,1.5-1,3-1.5,4.4c-0.6,1.6-0.5,3.1,0.6,4.4c0.7,0.9,1.4,1.7,2.3,2.4
		c1,0.9,2.3,1.4,3.7,1.6c-0.2-1.6,0.2-3,0.8-4.4c0.4-0.8,0.4-1.7,0.1-2.6C164,141.4,161.8,139.6,159.1,138.5z M200.8,189.5
		c0.3-0.2,0.5-0.2,0.7-0.4c0.8-1,2-1.3,3.1-1.6c1.3-0.3,2-1.1,2.5-2.4c1.1-3.4-0.3-6.2-2.1-9c-0.3,0.3-0.5,0.5-0.6,0.7
		c-0.5,1.3-1.5,2-2.6,2.8c-1.2,0.8-1.9,2-2,3.5C199.6,185.3,200.2,187.4,200.8,189.5z M195,173.8c0-1.7,0.8-2.9,1.7-4
		c0.6-0.7,0.7-1.6,0.5-2.5c-0.4-1.7-1.3-3.2-2.5-4.4c-1.2-1.1-2.5-1.8-4.2-2.2c0.2,1.7-0.4,3.1-0.9,4.6c-0.2,0.6-0.3,1.3-0.2,1.8
		C190,170.3,191.9,172.4,195,173.8z M207.6,197.3c-0.3,0.1-0.6,0.1-0.8,0.2c-1.2,0.7-2.4,0.7-3.7,0.5c-0.5-0.1-1.1,0-1.6,0.2
		c-2.5,1-4.2,2.8-5.1,5.3c-0.2,0.4-0.1,0.7,0.4,0.8c1.2,0.2,2.2,0.8,3.2,1.4c0.7,0.4,1.4,0.5,2.2,0.4c1-0.2,2-0.7,2.7-1.4
		C207,202.6,207.6,200.1,207.6,197.3z M166.2,144.5c0.2,1.6-0.3,3-0.9,4.4c-0.4,0.9-0.3,1.9,0.1,2.8c1.3,2.8,3.6,4.4,6.5,5.1
		c0.1,0,0.3,0,0.4,0c0-0.8-0.1-1.5,0-2.2c0.1-0.7,0.5-1.5,0.7-2.2c0.1-0.6,0.2-1.2,0.1-1.8C172.5,147.7,169.2,144.8,166.2,144.5z
		 M202.6,207.1c-0.2,0-0.4,0-0.6,0c-1,0-2-0.1-2.7-0.8c-1.3-1.2-2.9-1.5-4.6-1.2c-2.2,0.3-3.9,1.4-5.3,2.9c0.9,1,1.9,1.9,2.7,2.9
		c0.8,1.1,1.8,1.6,3.2,1.6c3,0.1,6.4-2.3,7.4-5.1C202.6,207.4,202.6,207.3,202.6,207.1z M195.3,85.4c-0.3,0.1-0.6,0.2-0.8,0.3
		c-1.1,0.6-2.2,0.8-3.4,0.9c-0.8,0.1-1.6,0.3-2.2,0.7c-1.1,0.7-1.9,1.7-2.5,2.9c-0.6,1.2-0.8,2.4-0.9,3.6c1.4,0.1,2.8,0.2,4.2,0.4
		c1.5,0.3,2.6-0.2,3.7-1.2C195.5,90.9,195.8,88.3,195.3,85.4z M143.7,76.7c-1.6,0.1-3-0.4-4.4-0.9c-0.8-0.3-1.6-0.2-2.4,0.1
		c-2.7,1.1-4.8,4.8-4.4,7.7c1.2-0.1,2.5-0.3,3.7-0.2c2.8,0.3,4.8-1,6.2-3.2C143.1,79.2,143.5,78.1,143.7,76.7z M171,56.9
		c0.1,0.3,0.2,0.6,0.3,0.8c0.7,1,0.8,2.1,0.8,3.2c0.1,3.5,3.4,6.3,6.9,6.1c0.3-1.4,0.6-2.8,0.9-4.3c0.3-1.5-0.2-2.7-1.2-3.7
		C176.6,56.9,173.9,56.6,171,56.9z M130.7,94.1c1.2-1.5,2.8-1.5,4.4-1.7c0.6-0.1,1.3-0.4,1.8-0.8c1.6-1.2,2.4-2.9,2.7-4.8
		c0.1-0.9,0.2-1.7,0.2-2.5c-1.6,0-3,0.1-4.5,0.1c-1.7,0-3,0.7-3.8,2.2c-0.2,0.4-0.4,0.7-0.6,1.1C130.1,89.7,130,91.7,130.7,94.1z
		 M182.2,155.1c0.2,1.5-0.1,2.9-0.6,4.2c-0.4,1.2-0.3,2.4,0.3,3.5c1.3,2.3,3.2,3.7,5.7,4.5c0.2,0.1,0.3,0.1,0.6,0.1
		c0-1.8,0.6-3.3,1.1-4.9c0.2-0.5,0.2-1.2,0-1.7C188.7,158.2,185.2,155.4,182.2,155.1z M156.3,145.3c-0.2-1.7,0.4-3,1.1-4.3
		c0.4-0.7,0.6-1.6,0.4-2.4c-0.6-2.9-2.2-4.9-4.8-6.1c-0.2-0.1-0.3-0.1-0.5-0.2c0,0.1-0.1,0.2-0.1,0.3c0,1.3-0.5,2.3-1.4,3.2
		c-0.7,0.7-1,1.6-0.9,2.6c0.3,3,2.1,5,4.7,6.4C155.3,144.9,155.7,145,156.3,145.3z M174,149.9c0,0.9,0.1,1.7,0,2.5
		c-0.1,0.8-0.5,1.5-0.7,2.3c-0.2,0.9,0,1.8,0.4,2.6c1.2,2.4,3.2,3.8,5.6,4.5c0.4,0.1,0.8,0.2,1.3,0.3c-0.3-1.7,0.1-3.1,0.6-4.6
		c0.3-1,0.2-2-0.4-2.9c-0.9-1.5-2.1-2.8-3.6-3.7C176.3,150.4,175.3,150,174,149.9z M199.2,181.1c0.2-0.2,0.3-0.3,0.4-0.5
		c0.5-1.3,1.6-1.9,2.6-2.6c0.9-0.7,1.3-1.7,1.3-2.8c0-2.7-1.3-4.9-3.4-6.6c-0.5-0.4-1.1-0.7-1.7-1.2c-0.2,1.9-1,3.3-2.1,4.6
		c-0.3,0.4-0.5,1-0.5,1.6c0,0.9,0.1,1.8,0.3,2.6C196.7,178,197.6,179.7,199.2,181.1z M160.7,57.7c1.6,0.6,2.1,2,2.5,3.4
		c0.2,0.6,0.5,1.1,1,1.5c2,1.8,4.4,2.3,7.1,1.8c0.6-0.1,0.7-0.4,0.6-1c-0.3-1-0.5-2.1-0.6-3.1c-0.2-1.5-0.9-2.6-2.2-3.3
		c-1.3-0.7-2.8-1-4.3-0.8C163.3,56.3,162,56.7,160.7,57.7z M147.2,125.2c-0.2,0.3-0.3,0.6-0.5,0.9c-0.4,0.7-0.8,1.5-1.4,2.1
		c-1.4,1.3-1.8,2.8-1.3,4.6c0.7,2.7,2.4,4.6,4.9,5.7c0.4-1,0.7-1.9,1.1-2.7c0.2-0.5,0.5-0.9,0.8-1.3c0.9-1.4,1-2.8,0.4-4.3
		C150.4,128.1,149.3,126.3,147.2,125.2z M151.4,61.1c0.2,0.1,0.4,0.3,0.6,0.4c1.1,0.4,1.9,1.1,2.5,2.1c1,1.5,2.5,2.2,4.3,2.1
		c1.1-0.1,2.1-0.3,3.1-0.5c0.9-0.2,1.6-0.7,2.2-1.5c-1.2-0.9-1.8-2.2-2.3-3.5c-0.4-0.9-1.1-1.5-2-1.8
		C157,57.5,153.8,58.2,151.4,61.1z M142.6,130.9c0.2-0.4,0.5-0.7,0.6-1.1c0.4-0.9,0.9-1.7,1.6-2.4c0.8-0.8,1.2-1.8,1.3-2.9
		c0.1-2.8-1.1-5.1-3.3-6.8c-0.1-0.1-0.3-0.1-0.4-0.2c-0.3,1.4-1.1,2.3-2.2,3c-1.2,0.7-1.6,1.8-1.6,3.2
		C138.6,126.8,140.2,129,142.6,130.9z M156.4,66c-1.7-0.2-2.4-1.4-3.3-2.6c-0.5-0.7-1.3-1.1-2.1-1.2c-3-0.3-5.3,1.1-7,3.5
		c-0.3,0.4-0.4,0.8-0.6,1.2c0.1,0.1,0.1,0.1,0.2,0.1c0.2,0,0.3,0.1,0.5,0.1c1.2,0.1,2,0.7,2.9,1.4c0.5,0.5,1.2,0.8,1.9,0.9
		C151.4,70.2,155,68.5,156.4,66z M136.7,74.9c1.8-0.5,3.2,0.1,4.6,0.7c0.5,0.2,1.2,0.3,1.8,0.3c2.4-0.2,5.4-2.7,6.1-5.1
		c-0.4-0.2-0.9-0.3-1.3-0.5c-0.7-0.4-1.5-0.6-2.1-1.1c-1.1-0.9-2.4-1.1-3.7-0.7C139.1,69.4,137.6,71.7,136.7,74.9z M193.9,75
		c-0.8,1.7-2.3,2.4-3.8,3.2c-0.5,0.3-1,0.8-1.3,1.3c-0.8,1.1-1.1,2.5-1.2,3.8c0,1.1,0,2.1,0.5,3c1.6-0.3,3.2-0.6,4.7-1
		c0.6-0.1,1.2-0.5,1.5-0.9C196.4,82.1,196.2,77.4,193.9,75z M207.5,186.7c-0.2,0.1-0.3,0.2-0.4,0.4c-0.8,0.9-1.8,1.4-3,1.7
		c-0.6,0.1-1.1,0.4-1.6,0.7c-2.4,2.1-2.6,5-2.4,8c0.4-0.1,0.7-0.1,1.1-0.2c0.9-0.1,1.8-0.3,2.7-0.3c1.9,0.1,3.1-0.7,3.9-2.3
		c0.9-1.8,1.1-3.7,0.9-5.7C208.5,188.2,208.2,187.4,207.5,186.7z M180.8,60c0,0.8,0.1,1.5,0,2.2c-0.1,0.9-0.4,1.9-0.6,2.8
		c-0.4,2,0.5,4.5,2.3,5.7c0.2-0.2,0.5-0.4,0.7-0.6c1.7-2,2.6-4.3,2.9-6.8c0-0.2,0-0.4-0.1-0.5C184.6,61.1,183,60,180.8,60z
		 M137.5,122.6c0.3-0.5,0.4-0.9,0.7-1.3c0.4-0.6,0.9-1.2,1.5-1.6c1.8-1.2,2.6-3.2,2-5.4c-2.2,0-4.5,0-6.7,0c-0.2,0-0.4,0.2-0.5,0.4
		c-0.1,0.6-0.2,1.3-0.2,1.9C134.4,119.1,135.9,120.8,137.5,122.6z M137.8,92.4c-1.7,0.4-3.2,0.9-4.8,1.3c-1.4,0.4-2.3,1.5-2.5,3.1
		c2.5-0.1,5-0.3,7.6-0.4C138.4,95,138.2,93.7,137.8,92.4z"/>
	<path class="st1" d="M112.6,245.1c0.5,0.5,1,1.1,1.6,1.7c-1.4,1.2-2.8,2.3-3.6,4c-0.7,1.7-0.6,3.5-0.4,5.5c0.3-0.2,0.5-0.4,0.8-0.5
		c0.8-0.3,1.6-0.8,2.3-0.8c2.5,0.3,4-1,5.4-2.7c0.2-0.2,0.4-0.8,0.8-0.5c0.4,0.3,0.3,0.8-0.1,1.1c-1,0.8-1.1,1.9-0.8,3
		c0.3,1.6,0.3,3.1-0.2,4.6c-0.4,1.1-0.2,2,0.6,2.9c1.2,1.3,1.6,3,1.7,4.7c0,0.6,0.2,1,0.7,1.2c1.9,0.8,3.3,2.2,4.1,4
		c0.4,0.9,1,1.3,2,1.3c1.3,0,2.5,0.4,3.6,1.1c0.5,0.3,1.1,0.6,1.6,0.8c0.3,0.1,0.7,0.1,1,0c2.1-0.8,4.2-1.4,6.5-0.8
		c0.4,0.1,0.9-0.1,1.3-0.2c0.3-0.1,0.6-0.4,0.9-0.6c1.9-1.5,4.2-2.2,6.6-2c0.5,0,0.7-0.1,0.9-0.5c0.4-0.7,1-1.3,1.8-1.4
		c0.3-0.1,0.6,0,1,0.1c-0.7,0.6-1.3,1.2-2,1.9c0.1,0.1,0.1,0.2,0.1,0.2c1.3,0.6,2.2,1.6,3.1,2.6c0.2,0.2,0.4,0.4,0.6,0.6
		c1.3,1.2,2.7,1.6,4.4,0.8c0.7-0.3,1.5-0.5,2.4,0.1c-0.6,0.3-1,0.6-1.5,0.7c-0.6,0.2-1.2,0.2-1.9,0.3c-1,0.1-1.8,0.5-2.4,1.2
		c-1.4,1.7-3.3,2.5-5.5,2.6c-1.5,0.1-2.9,0.5-4.2,1.5c-1.6,1.3-3.5,1.8-5.5,1.5c-1.8-0.2-3.4-0.1-5.1,0.5c-2.3,0.8-4.6,0.5-6.8-0.7
		c-1.6-0.9-3.2-1.5-5-1.8c-2.7-0.5-4.7-2.1-6-4.6c-0.4-0.8-1.2-1.6-2-2.1c-2.6-1.7-4-4-4.3-7.1c-0.1-0.9-0.4-1.6-0.9-2.3
		c-1.5-2-2.1-4.2-1.9-6.7c0.1-0.8,0.4-1.6,0.6-2.4c0.1-0.7,0.2-1.4,0.1-2c-0.6-2.8-0.2-5.4,1.6-7.8c0.3-0.3,0.6-0.7,0.8-1
		C112,246.7,112.3,245.9,112.6,245.1z M116.9,276.2c0.2-0.6,0.3-1.2,0.4-1.7c0.2-0.8,0.6-1.5,1.3-2c0.7-0.5,1.1-1.2,1.1-2
		c0-1.3-0.1-2.6-0.4-3.9c-0.2-0.9-0.5-1.8-0.9-2.7c-0.3-0.7-0.9-0.8-1.4-0.4c-1.1,0.7-2.1,1.5-3.2,2.2c-0.7,0.5-1.2,1-1.4,1.9
		C111.7,270.8,113.8,274.9,116.9,276.2z M111.7,267.1c0.4-1.4,1.3-2,2.3-2.6c0.5-0.3,1-0.6,1.5-0.9c0.9-0.6,1.5-1.4,1.9-2.4
		c0.8-2,0.6-4.1,0.2-6.2c-1.6,0.3-3,0.7-4.6,1c-1.2,0.2-2.1,0.9-2.6,2c-1.4,2.8-1.1,5.6,0.4,8.3C111,266.6,111.3,266.8,111.7,267.1z
		 M120.7,270.2c-0.2,1.6-1,2.7-1.9,3.7c-0.7,0.8-1,1.8-0.8,2.8c0.7,3.2,4.2,6.1,7.5,6.1c0,0,0-0.1,0-0.1c0-0.1,0-0.3-0.1-0.4
		c-0.4-1.2-0.3-2.4,0.1-3.6c0.2-0.6,0.3-1.4,0.2-2C125.3,273.7,123.6,271.6,120.7,270.2z M155.7,278.6c-0.4-0.3-0.7-0.5-1-0.6
		c-0.8-0.3-1.3-0.8-1.7-1.6c-1.3-2.2-3.3-2.7-5.6-2.4c-1.9,0.2-3.3,1.4-5,2.2c0.3,0.4,0.7,0.6,0.9,1c0.6,0.7,1.2,1.4,1.6,2.2
		c0.7,1.5,1.9,2.2,3.5,2.2c0.6,0,1.2,0.1,1.8,0C152.4,281.3,154.2,280.4,155.7,278.6z M146.8,282.2c-1.4-0.5-2.3-1.3-2.8-2.5
		c-0.4-1.2-1.3-2-2.5-2.4c-2.2-0.8-4.5-0.7-6.7,0.2c-0.2,0.1-0.5,0.1-0.6,0.1c0.6,1.4,1.1,3,1.8,4.5c0.7,1.5,1.8,2.3,3.4,2.5
		c2,0.3,3.9-0.1,5.7-1.1C145.7,283.1,146.1,282.7,146.8,282.2z M126.7,275.7c-0.1,0.9-0.1,1.7-0.2,2.5c-0.1,0.6-0.1,1.2-0.2,1.8
		c-0.2,1.6,0.4,2.8,1.6,3.7c2.3,1.8,6.3,2.3,8.5,1c-0.1-0.2-0.2-0.3-0.3-0.4c-1.1-1-1.5-2.4-1.7-3.9c-0.1-0.5-0.4-1.1-0.8-1.5
		C131.9,276.7,129.5,275.9,126.7,275.7z"/>
	<path class="st1" d="M151.7,215.5c0.3,0.3,0.5,0.6,0.8,0.8c0.8,0.6,1.2,1.3,1.5,2.2c0.4,1.5,1.3,2.4,2.8,2.8
		c0.6,0.2,1.3,0.2,1.7,1.1c-0.5,0-0.8,0.1-1.2,0.1c-0.4,0.1-0.9,0-1.2,0.2c-1.4,0.7-2.7,1.5-4.3,1.7c-0.9,0.1-1.8,0.1-2.6,0.1
		c-0.8,0-1.5,0.2-2,0.8c-1.4,1.5-3.2,2.5-5.2,2.7c-1.1,0.1-1.9,0.6-2.6,1.5c-1.2,1.6-2.6,2.9-4.6,3.4c-1.2,0.3-2.1,1-2.5,2.3
		c-0.2,0.8-0.6,0.8-1.4,0.5c0.3-0.7,0.7-1.3,1-2c-0.4-0.1-0.7-0.2-1.1-0.2c-0.9-0.2-1.7-0.6-2.4-1.3c-1-1-2.2-1.2-3.6-0.8
		c-0.7,0.2-1.4,0.5-2.3,0.2c0.3-0.2,0.4-0.4,0.7-0.6c0.8-0.5,1.4-1.1,1.9-2.1c1.2-2.2,3-3.7,5.4-4.4c1-0.3,1.8-0.8,2.4-1.7
		c1.3-2,3.3-3.2,5.6-3.8c0.4-0.1,0.8-0.2,1.2-0.3c0.8-0.2,1.4-0.5,2-1.1c2.1-1.9,4.7-3,7.6-2.6c0.8,0.1,1.4,0,2.1-0.4
		c1.5-0.8,3-1.6,4.8-1.8c0.7-0.1,1.5,0,2.2,0.1c0.2,0,0.3,0.3,0.5,0.5c-0.2,0.1-0.3,0.4-0.5,0.4c-0.9,0.1-1.9,0.1-2.8,0.1
		C154.2,214.1,153,214.7,151.7,215.5z M146.8,224.1c-0.2-0.2-0.4-0.3-0.5-0.4c-1.1-0.5-1.8-1.3-2.4-2.4c-0.6-1.1-1.7-1.6-3-1.6
		c-3.1,0-5.5,1.4-7.3,3.9c-0.1,0.1-0.1,0.2-0.2,0.4c1.6,0.1,2.6,1,3.5,2c0.7,0.7,1.5,1.1,2.5,1.2c2.5,0.2,4.6-0.5,6.5-2.1
		C146.3,224.8,146.5,224.5,146.8,224.1z M125.5,230c0.2,0.1,0.3,0.1,0.4,0.1c1.4,0.1,2.5,0.7,3.5,1.6c1,0.9,2.2,1.1,3.5,0.8
		c2.4-0.4,4.2-1.7,5.7-3.6c0.2-0.2,0.3-0.4,0.5-0.8c-1.6-0.2-2.6-1.1-3.6-2.2c-0.8-0.9-1.9-1.1-3.1-1
		C129.3,225.3,127.1,227.1,125.5,230z M142,218.9c1.6,0.5,2.7,1.4,3.3,2.8c0.2,0.4,0.7,0.8,1.1,1c0.7,0.3,1.5,0.6,2.3,0.7
		c2.4,0.4,4.4-0.7,6.6-1.4c-0.2-0.3-0.3-0.5-0.5-0.7c-1-0.9-1.5-2-2-3.2c-0.5-1.2-1.5-1.9-2.8-2.2c-2.6-0.5-5,0.2-7,1.8
		C142.7,218.1,142.4,218.5,142,218.9z"/>
	<path class="st1" d="M165.2,94.4c0-0.3,0-0.4,0-0.6c0.2-5,0.3-9.9,0.5-14.9c0.1-2.2,0.3-4.5,0.7-6.7c0.4-2.5,2.8-4.3,5.4-4.3
		c2.6,0,5,1.8,5.4,4.3c0.4,2.7,0.7,5.3,0.8,8c0.2,4.5,0.3,9,0.4,13.5c0,0.2,0,0.3,0,0.6c-0.8,0-1.5,0-2.2,0c-0.1,0-0.3-0.4-0.3-0.5
		c-0.1-2.7-0.2-5.4-0.3-8.1c-0.1-3.3,0-6.7-0.1-10c0-1-0.2-2.1-0.5-3.1c-0.5-1.5-1.6-2.3-3.2-2.3c-1.5,0-2.6,0.7-3.1,2.3
		c-0.3,1.1-0.5,2.3-0.5,3.5c-0.2,5.2-0.3,10.4-0.4,15.7c0,0.7-0.1,1.4-0.1,2c0,0.1-0.2,0.4-0.3,0.4
		C166.6,94.3,165.9,94.3,165.2,94.4z"/>
	<path class="st1" d="M174.8,94.1c-1.6,0-3,0-4.5,0c-0.1,0-0.4-0.4-0.4-0.6c-0.1-2.7-0.1-5.4-0.1-8.1c0-3.5,0.1-6.9,0.1-10.4
		c0-0.7,0.1-1.4,0.2-2.1c0.2-1,0.8-1.4,1.9-1.3c0.9,0,1.6,0.5,1.7,1.4c0.2,0.9,0.2,1.8,0.2,2.8c0.2,5.5,0.5,11,0.7,16.5
		C174.9,92.9,174.8,93.5,174.8,94.1z"/>
</g>
<text transform="matrix(1 0 0 1 40.2391 346.9101)" class="st2 st3 st4">Балтика</text>
<g class="st5">
	<path class="st1" d="M105,321.4c0.3,0.1,0.8,0.2,1.4,0.4c0.7,0.2,1.4,0.5,2.2,0.8c0.8,0.3,1.7,0.7,2.6,1.2c0.9,0.5,1.7,1.1,2.5,1.7
		c0.8,0.7,1.4,1.4,1.9,2.3c0.5,0.9,0.8,1.8,0.9,2.9c0.3-0.1,0.7-0.2,1.1-0.3c0.4-0.1,0.8-0.3,1.2-0.4c0.4-0.1,0.7-0.2,1-0.3
		s0.5-0.1,0.7-0.1s0.3,0,0.3,0.1s0.1,0.2,0,0.3c0,0.2-0.4,0.3-1.1,0.6c-0.7,0.2-1.7,0.5-3.1,1c0,0.4,0.1,0.9,0.1,1.6
		c0,0.7,0,1.4-0.2,2.1c-0.4,1.7-1.1,3.3-2.1,4.7c-1,1.4-2.3,2.6-4,3.7c-1.7,1.1-3.8,2.1-6.3,2.9c-1.3,0.4-2.5,0.7-3.8,0.9
		c-1.3,0.2-2.5,0.3-3.9,0.2c-1.9-0.1-3.2-0.5-4-1.1s-1-1.5-0.7-2.6c0.3-1,1-2,2.1-3c1.1-1,2.6-1.9,4.5-2.8c0.9-0.5,1.8-0.9,2.7-1.4
		c0.9-0.4,1.9-0.9,2.9-1.4c1.1-0.5,2.2-0.9,3.5-1.4c1.3-0.5,2.7-1,4.4-1.6c0-0.9-0.2-1.8-0.5-2.8c-0.3-1-0.8-1.9-1.5-2.8
		c-0.6-0.9-1.4-1.7-2.4-2.5c-0.9-0.8-2-1.4-3.1-1.9l-2.7-0.8c-0.6,1.3-1.3,2.6-2,3.9c-1.7,3-3.3,5.6-5.1,8c-1.7,2.4-3.5,4.5-5.4,6.3
		c-2.4,2.6-5.9,5.2-10.6,8.1c-4.7,2.8-10.1,4.3-16.5,4.6c-5.7-0.1-10.3-1.3-13.7-3.7c-3.4-2.4-5.1-5.5-5.2-9.5
		c0-4.2,1.7-7.8,5.2-10.9c3.5-3.1,8.7-4.7,15.6-4.8c5,0.1,8.9,1.1,11.8,2.9c2.9,1.8,4.4,3.8,4.5,6c0,0.8-0.2,1.5-0.5,2.1
		s-0.7,1.1-1.2,1.5h5.7c0.2,0,0.3,0,0.4,0c0.1,0,0.1,0.1,0.1,0.3c0,0.2-0.1,0.3-0.2,0.3c-0.1,0-0.3,0.1-0.5,0.1h-6.5
		c-0.7,0.6-1.9,1.2-3.7,1.7c-0.9,0.3-1.9,0.5-3,0.6c-1.1,0.2-2.4,0.2-3.9,0.3c-3.1-0.1-5.5-0.4-7.3-1c-1.8-0.6-2.7-1.3-2.8-1.9
		c0-0.3,0.3-0.5,1-0.5h19.4c0.7-0.6,1.2-1.1,1.6-1.7s0.6-1.2,0.6-2c-0.1-1.7-1.5-3.2-4.4-4.5c-2.8-1.3-6.4-1.9-10.9-2
		c-5.6,0-10.2,0.9-13.9,2.6c-3.6,1.7-5.5,4.5-5.7,8.2c0.2,4.3,2.6,7.2,7.1,8.8c4.5,1.6,9.5,2.4,15,2.3c4.2,0,7.9-0.6,11.2-1.7
		c3.3-1.1,6-2.7,8.1-4.9c3.8-4.1,7.7-9.6,11.6-16.6c0.3-0.6,0.7-1.2,1-1.8c0.3-0.6,0.6-1.2,0.9-1.8l-2.3-0.7
		c-0.2-0.1-0.3-0.1-0.4-0.1s0-0.1,0.1-0.3c0.1-0.2,0.2-0.3,0.3-0.4c0.1,0,0.2,0,0.5,0l2.3,0.6c1.3-2.6,2.4-4.9,3.3-7.2
		c0.9-2.2,1.7-4.4,2.4-6.5c-1.1-0.4-2.2-0.7-3.5-0.9c-1.2-0.2-2.5-0.3-3.7-0.3c-1.3,0-2.5,0.1-3.7,0.3c-1.2,0.2-2.4,0.5-3.4,0.8
		c-1.1,0.4-2.1,0.8-2.9,1.3c-0.9,0.5-1.6,1-2.2,1.6c-2.4,2.5-3.6,5.2-3.5,8.2c0.2,3.1,0.8,5.7,2,7.8c1.2,2.1,1.8,3.3,2,3.7
		c0,0.2-0.1,0.4-0.3,0.4c-0.1,0.1-0.4-0.2-0.9-1c-0.5-0.7-1.4-2.4-2.7-5c-0.6-1.5-1.2-3-1.6-4.3c-0.4-1.3-0.7-2.7-0.7-4.2
		c-0.1-3.1,1.2-5.6,3.8-7.5c1.9-1.3,3.8-2.2,5.8-2.7c1.9-0.5,3.9-0.7,5.9-0.6c2,0.1,4,0.3,6,0.7s4,0.9,6,1.3c2,0.4,4,0.8,6,1.1
		c2,0.3,4,0.4,5.9,0.2c2-0.2,3.9-0.6,5.8-1.4s3.8-2.1,5.6-3.8c0.2-0.1,0.3-0.1,0.4,0c-0.4,1.2-1,2.4-1.9,3.4c-0.9,1.1-1.9,2.1-3.2,3
		c-0.6,0.4-1.2,0.7-1.9,1c-0.7,0.3-1.5,0.5-2.3,0.7c-0.8,0.2-1.8,0.2-2.8,0.2c-1,0-2.2-0.2-3.5-0.4c-1.3-0.3-2.7-0.7-4.3-1.3
		c-1.6-0.6-3.3-1.3-5.3-2.2c-0.6,2.5-1.2,4.9-1.9,7.2c-0.7,2.3-1.5,4.5-2.5,6.7L105,321.4z M111.8,337.2c0.1-0.3,0.1-0.7,0.2-1.1
		c0.1-0.4,0.1-0.7,0.1-1.1c0-0.4,0-0.7,0-1c0-0.3-0.1-0.5-0.3-0.7c-2.4,0.9-4.5,1.7-6.5,2.5c-1.9,0.8-3.6,1.6-5.2,2.3
		c-3,1.5-4.7,3.1-5.2,4.7c-0.1,0.6-0.1,1,0.1,1.5c0.2,0.4,0.5,0.8,0.9,1.1c0.4,0.3,0.9,0.5,1.5,0.7c0.6,0.2,1.2,0.3,2,0.4
		c1.4,0,2.8-0.2,4.1-0.6c1.3-0.4,2.5-1.1,3.7-2c1.2-0.9,2.2-1.9,2.9-3.1C110.9,339.8,111.5,338.6,111.8,337.2z"/>
	<path class="st1" d="M146.8,325.5c-0.6,1.3-1.4,3-2.3,5.1s-1.9,4.2-2.9,6.4c-1,2.2-1.8,4.2-2.5,5.8c-0.7,1.7-1,2.8-1,3.3
		c0,0.2,0,0.3,0.1,0.4c0,0.1,0.1,0.1,0.3,0.1c0.2,0,0.7-0.3,1.4-0.9c0.7-0.5,1.3-1.1,1.9-1.7c1.7-1.8,2.8-3.1,3.2-3.9
		c0.4-0.8,0.7-1.2,0.9-1.2c0.1,0,0.2,0,0.2,0.1c0.1,0,0.1,0.1,0.1,0.2c-0.1,0.3-0.5,1.1-1.4,2.3c-0.9,1.2-1.8,2.3-2.8,3.3
		c-0.6,0.6-1.3,1.2-2,1.7c-0.8,0.5-1.5,0.8-2.1,0.9c-0.6,0-1.2-0.3-1.6-0.8c-0.5-0.5-0.7-1.3-0.8-2.5c0-0.8,0.2-1.7,0.5-2.7
		s0.8-2.2,1.4-3.3c0.6-1.2,1.2-2.5,1.8-3.8c0.6-1.3,1.3-2.7,1.9-4.1c-0.7,0.9-1.4,1.9-2.1,2.9c-0.7,1-1.5,2.1-2.3,3.1
		c-0.8,1.1-1.7,2.2-2.5,3.2s-1.9,2.2-2.9,3.3c-1.2,1.2-2.3,2.3-3.4,3.1c-1.1,0.9-2.2,1.3-3.3,1.4c-0.9-0.1-1.6-0.5-1.9-1.2
		c-0.4-0.8-0.5-1.7-0.5-2.7c0.1-3.7,1.9-7.6,5.4-11.7c3.5-4,7.8-6.2,13.1-6.5c0.5,0,0.9,0,1.3,0.1c0.4,0.1,0.8,0.2,1.2,0.3H146.8z
		 M142.5,326.1c-0.1,0-0.3,0-0.5-0.1c-0.2-0.1-0.5-0.1-0.8-0.1c-4.6,0.5-8.4,3.3-11.6,8.1c-3.1,4.9-4.8,8.8-4.9,11.7
		c0,0.3,0,0.5,0.1,0.6c0.1,0.1,0.2,0.2,0.4,0.2c0.6-0.1,1.5-0.5,2.4-1.4c1-0.8,1.8-1.6,2.4-2.2c1.9-1.9,4.1-4.5,6.6-7.7
		C139,332,141,329,142.5,326.1z"/>
	<path class="st1" d="M150.4,344.1c-0.2,0.4-0.2,0.7-0.2,1c0,0.3,0.1,0.5,0.3,0.7c0,0.1,0.1,0.3,0.3,0.4c0.2,0.1,0.4,0.2,0.7,0.2
		c0.5,0,1.1-0.3,1.7-0.9c0.6-0.6,1.3-1.3,2-2.2s1.4-1.8,2.1-2.9s1.4-2,2-3c0.3-0.5,0.8-1.2,1.4-2c0.6-0.8,1.2-1.7,1.9-2.6
		c0.7-0.9,1.5-1.9,2.3-2.8c0.8-0.9,1.6-1.8,2.3-2.5c0.8-0.8,1.5-1.3,2.2-1.8c0.7-0.4,1.3-0.6,1.8-0.5c0.7,0,1.3,0.3,1.7,0.9
		c0.4,0.6,0.6,1.3,0.6,2.3c0,0.9-0.2,1.6-0.5,2.3c-0.2,0.4-0.4,0.8-0.7,1.3c-0.3,0.5-0.6,1.1-1,1.8c-1,2.2-1.9,4-2.6,5.5
		c-0.7,1.5-1.3,2.6-1.8,3.6s-0.8,1.6-1,2.1c-0.2,0.5-0.3,0.8-0.3,1s0.1,0.4,0.2,0.5c0.1,0.2,0.3,0.2,0.6,0.2c0.4,0,0.9-0.2,1.4-0.6
		c0.3-0.2,0.5-0.4,0.7-0.5s0.4-0.3,0.5-0.5c0.5-0.5,1-1.1,1.4-1.6c0.4-0.5,0.9-1.1,1.3-1.6c0.8-1.1,1.3-1.7,1.6-1.7
		c0.1,0,0.2,0,0.2,0.1c0,0,0,0.1,0,0.2c-0.1,0.3-0.6,1.1-1.6,2.3c-0.5,0.6-0.9,1.1-1.3,1.6c-0.4,0.5-0.8,0.9-1.2,1.3
		c-0.6,0.7-1.2,1.2-1.7,1.5c-0.5,0.3-1,0.4-1.6,0.4c-0.9,0-1.6-0.4-2.2-1.1c-0.5-0.8-0.7-1.6-0.7-2.5c-0.1-0.7,0.2-1.7,0.9-3
		c0.3-0.7,0.8-1.6,1.4-2.9c0.6-1.3,1.5-2.8,2.4-4.7c0.4-0.8,0.8-1.6,1.2-2.3c0.4-0.7,0.7-1.4,1.1-2.1c0.7-1.3,1.1-2.1,1.1-2.5
		c0-0.2-0.1-0.3-0.4-0.3c-0.5,0-1.1,0.4-1.9,1s-1.6,1.5-2.5,2.6s-1.9,2.3-3,3.8c-1.1,1.4-2.2,3-3.4,4.6c-0.6,0.8-1.1,1.6-1.7,2.5
		c-0.6,0.9-1.2,1.8-1.9,2.7s-1.4,1.7-2.2,2.4c-0.8,0.7-1.6,1.3-2.6,1.7c-1.3,0-2.4-0.4-3.1-1c-0.8-0.7-1.2-1.5-1.3-2.6
		c-0.2-1.1-0.1-1.9,0.3-2.6c0.4-0.7,0.9-1.1,1.4-1.3c0.5-0.1,0.9,0,1.4,0.3s0.8,0.7,0.9,1.2c0.1,0.6,0.1,1.2-0.1,1.6
		S150.8,343.6,150.4,344.1z"/>
	<path class="st1" d="M186,325.1c0.8,0,1.4,0.3,2,1c0.6,0.7,0.9,1.6,0.9,2.8c0,0.6-0.1,1.2-0.3,1.8c-0.2,0.6-0.6,1.4-1.1,2.3
		c-0.5,0.9-1.1,2-1.8,3.3c-0.7,1.3-1.5,3-2.4,4.9c1-1.4,1.8-2.5,2.5-3.5c0.7-1,1.4-1.9,2-2.8c0.7-0.9,1.4-1.7,2.3-2.7s1.9-2,3.2-3.2
		c0.9-0.9,1.9-1.8,3-2.7s2.1-1.4,3.1-1.4c0.9,0,1.5,0.4,1.9,1.1s0.6,1.4,0.5,2.2c0,0.6-0.1,1.2-0.4,1.9c-0.2,0.6-0.6,1.4-1.1,2.2
		c-0.5,0.9-1.1,2-1.8,3.4s-1.5,3.2-2.5,5.3c1.6-2.3,3.2-4.3,4.6-6.1s3.1-3.6,4.8-5.3c0.9-0.9,2-1.9,3.3-2.9c1.3-1,2.4-1.6,3.5-1.6
		c0.8,0,1.4,0.4,1.8,1.1s0.6,1.4,0.6,2.3c0.1,0.5-0.1,1.3-0.5,2.2c-0.4,0.9-1.5,3.1-3.3,6.6c-1,1.9-1.9,3.7-2.7,5.5
		c-0.9,1.8-1.3,2.9-1.4,3.3c0,0.3,0.1,0.5,0.2,0.6c0.1,0.1,0.3,0.2,0.6,0.2c0.4,0,0.8-0.2,1.3-0.6c0.5-0.4,1-0.8,1.4-1.3
		c1.4-1.5,2.4-2.6,2.9-3.4c0.5-0.8,0.9-1.2,1.2-1.3c0.1,0,0.2,0,0.2,0.1c0,0.1,0.1,0.1,0.1,0.2c-0.1,0.3-0.6,1.1-1.6,2.3
		c-1,1.2-1.8,2.2-2.6,2.9c-0.7,0.6-1.3,1.1-1.8,1.4c-0.5,0.3-1,0.4-1.4,0.4c-0.9,0-1.6-0.4-2.1-1c-0.6-0.7-0.8-1.5-0.9-2.5
		c-0.1-0.6,0.2-1.5,0.6-2.6c0.5-1.2,1.5-3.2,3.1-6.3c1.4-2.8,2.4-4.9,3.2-6.3s1.1-2.3,1.1-2.5c0-0.1,0-0.2-0.1-0.2
		c-0.1,0-0.2-0.1-0.3-0.1c-0.4,0-1.2,0.5-2.3,1.3c-1.1,0.8-2.4,2-3.8,3.3c-1.9,1.8-3.9,4.1-6.1,6.9c-2.2,2.8-4.2,6-6.1,9.5h-4.2
		c0.6-1.4,1.5-3.2,2.5-5.4c1.1-2.2,2.2-4.5,3.3-6.8c1.1-2.3,2.1-4.2,2.9-5.9s1.2-2.5,1.3-2.7c0-0.2,0-0.3-0.1-0.4
		c-0.1-0.1-0.2-0.1-0.4-0.1c-0.3,0-1,0.4-2.1,1.2c-1,0.8-2.1,1.7-3.3,2.9c-1.9,1.9-4,4.2-6.2,7s-4.4,6.2-6.5,10.1h-3.9
		c1.7-3.8,3.2-6.9,4.4-9.5c1.2-2.5,2.2-4.6,2.9-6.1c0.8-1.5,1.3-2.7,1.7-3.4c0.4-0.7,0.5-1.2,0.5-1.3c0-0.2,0-0.4-0.1-0.5
		c-0.1-0.1-0.2-0.2-0.4-0.2c-0.4,0-1.1,0.2-2,0.7c-0.9,0.5-2.1,1.5-3.5,3c-1,1-1.6,1.7-2,2.2c-0.3,0.4-0.6,0.6-0.8,0.6
		c-0.1,0-0.1,0-0.2-0.1c0,0-0.1-0.1-0.1-0.2c0.2-0.6,1.2-1.9,3.2-3.7C182.5,326.4,184.3,325.4,186,325.1z"/>
	<path class="st1" d="M226,325c0.9,0,1.7,0.4,2.2,1.2s0.8,1.6,0.8,2.5c0.1,0.7-0.2,1.7-0.9,3s-1.9,3.9-3.9,7.6
		c-0.8,1.6-1.6,3.1-2.3,4.4c-0.7,1.3-1.1,2.1-1.1,2.5c0,0.1,0,0.2,0.1,0.3c0.1,0,0.2,0.1,0.3,0.1c0.7-0.1,1.6-0.7,2.9-1.7
		c1.3-1.1,2.3-2,3.2-2.8c1.9-1.9,4-4.2,6.2-7.1c2.2-2.9,4.3-6,6.1-9.5h3.8c-1.9,4-3.4,7.3-4.7,9.9c-1.3,2.6-2.2,4.6-3,6.1
		c-0.7,1.5-1.2,2.6-1.5,3.2c-0.3,0.7-0.5,1.2-0.4,1.4c0,0.2,0.1,0.3,0.2,0.4c0.1,0.1,0.3,0.2,0.5,0.2c0.7,0,1.4-0.3,2.1-0.9
		s1.3-1.1,1.9-1.7c1.3-1.4,2.2-2.4,2.7-3.2c0.5-0.8,0.9-1.2,1.1-1.2c0.1,0,0.2,0,0.2,0.1c0,0,0.1,0.1,0.1,0.2c0,0.2-0.4,0.9-1.2,1.8
		c-0.7,1-1.6,1.9-2.5,2.8c-0.5,0.5-1.2,1.1-2,1.8c-0.9,0.6-1.8,1-2.8,1.1c-0.9,0-1.6-0.3-2.1-0.7c-0.5-0.4-0.7-1.2-0.7-2.1
		c0-0.7,0-1.4,0.3-2.1c0.2-0.7,0.6-1.6,1.1-2.7c0.6-1.1,1.3-2.5,2.2-4.2c0.9-1.7,2.1-3.9,3.5-6.6c-1.9,3-3.7,5.6-5.5,7.9
		c-1.8,2.2-3.5,4.1-5,5.5c-1.3,1.3-2.5,2.4-3.8,3.3c-1.3,1-2.3,1.5-3.2,1.5c-0.7,0-1.3-0.3-1.7-0.9c-0.4-0.6-0.6-1.3-0.6-2.3
		c0-0.9,0.2-1.6,0.5-2.3c0.3-0.7,0.9-1.7,1.7-3.1c1-2.2,1.9-4,2.6-5.5c0.7-1.5,1.3-2.7,1.8-3.6c0.4-0.9,0.8-1.6,1-2.1
		c0.2-0.5,0.4-0.8,0.4-1c0-0.2-0.1-0.4-0.2-0.5c-0.1-0.2-0.3-0.2-0.6-0.2c-0.5,0-0.9,0.2-1.4,0.6c-0.5,0.4-0.9,0.7-1.2,1
		c-1,1-1.9,2.1-2.7,3.2c-0.8,1.1-1.3,1.7-1.6,1.7c-0.1,0-0.2,0-0.2-0.1s0-0.1,0-0.2c0.1-0.4,0.6-1.1,1.6-2.3c1-1.2,1.8-2.1,2.5-2.8
		c0.6-0.7,1.2-1.2,1.7-1.5C224.9,325.2,225.4,325,226,325z"/>
	<path class="st1" d="M257.1,324.5l-3.6,8.4c1.5,0,2.7-0.1,3.6-0.3c0.9-0.3,1.9-0.8,2.8-1.7c1.7-1.9,3.1-3.7,4.3-5.3s2.5-2.5,4-2.6
		c0.6,0,1,0.1,1.2,0.3c0.3,0.2,0.4,0.5,0.4,0.9c0,0.3-0.1,0.9-0.2,1.9s-0.3,1.5-0.5,1.6c-0.3-0.1-0.5-0.4-0.6-0.8
		c-0.1-0.5-0.5-0.8-1.2-0.8c-1.1,0.2-2.3,1.2-3.8,3c-1.4,1.8-3.4,3.2-5.8,4.2v0.2c0.4,0.1,0.9,0.2,1.4,0.5s1.1,0.7,1.6,1.2
		c1.1,1.4,2,3.2,2.7,5.7s1.4,3.8,2,4c0.5-0.2,1.3-1,2.3-2.4c1-1.4,1.7-2.2,2-2.4c0.1,0,0.2,0,0.3,0.1c0.1,0,0.1,0.1,0.1,0.3
		c-0.1,0.3-0.8,1.2-2.1,2.7s-2.2,2.6-2.8,3.2c-0.3,0.3-0.5,0.5-0.8,0.6c-0.3,0.2-0.6,0.3-1,0.3c-1,0-1.7-0.6-2.2-1.8
		c-0.5-1.2-1.2-3-2-5.5c-0.9-2.8-1.7-4.6-2.4-5.3c-0.7-0.7-1.9-0.9-3.7-0.8l-5.2,13.3h-3.8l8.8-22.3L257.1,324.5z"/>
	<path class="st1" d="M295.6,325.5c-0.6,1.3-1.4,3-2.3,5.1c-1,2.1-1.9,4.2-2.9,6.4c-1,2.2-1.8,4.2-2.5,5.8c-0.7,1.7-1,2.8-1,3.3
		c0,0.2,0,0.3,0.1,0.4s0.1,0.1,0.3,0.1c0.2,0,0.7-0.3,1.4-0.9c0.7-0.5,1.3-1.1,1.9-1.7c1.7-1.8,2.8-3.1,3.2-3.9
		c0.4-0.8,0.7-1.2,0.9-1.2c0.1,0,0.2,0,0.2,0.1c0.1,0,0.1,0.1,0.1,0.2c-0.1,0.3-0.5,1.1-1.4,2.3c-0.9,1.2-1.8,2.3-2.8,3.3
		c-0.6,0.6-1.3,1.2-2,1.7c-0.8,0.5-1.5,0.8-2.1,0.9c-0.6,0-1.2-0.3-1.6-0.8s-0.7-1.3-0.8-2.5c0-0.8,0.2-1.7,0.5-2.7
		c0.4-1,0.8-2.2,1.4-3.3c0.6-1.2,1.2-2.5,1.8-3.8c0.6-1.3,1.3-2.7,1.9-4.1c-0.7,0.9-1.4,1.9-2.1,2.9c-0.7,1-1.5,2.1-2.3,3.1
		c-0.8,1.1-1.7,2.2-2.5,3.2c-0.9,1.1-1.9,2.2-2.9,3.3c-1.2,1.2-2.3,2.3-3.4,3.1c-1.1,0.9-2.2,1.3-3.3,1.4c-0.9-0.1-1.6-0.5-1.9-1.2
		c-0.4-0.8-0.5-1.7-0.5-2.7c0.1-3.7,1.9-7.6,5.4-11.7c3.5-4,7.8-6.2,13.1-6.5c0.5,0,0.9,0,1.3,0.1s0.8,0.2,1.2,0.3H295.6z
		 M291.3,326.1c-0.1,0-0.3,0-0.5-0.1c-0.2-0.1-0.5-0.1-0.8-0.1c-4.6,0.5-8.4,3.3-11.6,8.1c-3.1,4.9-4.8,8.8-4.9,11.7
		c0,0.3,0,0.5,0.1,0.6c0.1,0.1,0.2,0.2,0.4,0.2c0.6-0.1,1.5-0.5,2.4-1.4s1.8-1.6,2.4-2.2c1.9-1.9,4.1-4.5,6.6-7.7
		S289.8,329,291.3,326.1z"/>
</g>
</svg>
