<?xml version="1.0" encoding="utf-8"?>
<!-- Generator: Adobe Illustrator 23.1.0, SVG Export Plug-In . SVG Version: 6.00 Build 0)  -->
<svg version="1.1" id="logo_x5F_clear" xmlns="http://www.w3.org/2000/svg" xmlns:xlink="http://www.w3.org/1999/xlink" x="0px"
	 y="0px" viewBox="0 0 343.5 402.9" style="enable-background:new 0 0 343.5 402.9;" xml:space="preserve">
<style type="text/css">
	.st0{display:none;}
	.st1{fill:#FFFFFF;}
</style>
<rect y="0" class="st0" width="343.5" height="402.9"/>
<g id="Якорь">
	<path class="st1" d="M200.7,112.2c0.8,0,1.6,0,2.3,0c8.5,0.3,16.9,0.7,25.4,1c3.5,0.2,7.1,0.4,10.6,0.7c2.1,0.2,2.9,0.9,2.9,3.1
		c0,4.8,0,9.7,0,14.5c0,0.7-0.2,1.4-0.3,2.1c-0.1,0.9-0.5,1.3-1.4,1.4c-2.2,0.2-4.5,0.5-6.7,0.7c-5.8,0.3-11.6,0.4-17.4,0.7
		c-8.8,0.4-17.5,0.9-26.3,1.4c-10.1,0.5-20.2,0.7-30.4,0.1c-8-0.4-16.1-0.8-24.1-1.2c-0.7,0-1.4,0-2.2,0c0,1.3-0.4,2.5,1,3.5
		c2.1,1.5,3.3,3.8,3.9,6.3c0.4,1.8,1.3,3.2,2.9,4.2c2.2,1.4,3.6,3.5,4.4,6c0.4,1.2,1,2.1,2.3,2.7c2.7,1.3,4.7,3.4,5.9,6.3
		c0.2,0.5,0.7,1.1,1.2,1.4c1.8,1.1,3.7,2.1,5.5,3.1c0.1,0.1,0.2,0.1,0.4,0.2c0.4-10.4,0.8-20.8,1.2-31.2c1,0,2,0,3.1,0
		c-0.4,10.7-0.7,21.3-1.1,31.9c0.1,0,0.2,0,0.2,0c0.2-1.5,0.4-2.9,0.5-4.4c0.4-8.5,0.7-17.1,1.1-25.6c0-0.6,0.3-1.2,0.4-1.7
		c0.1,0,0.3,0,0.4,0c0.1,0.8,0.3,1.6,0.3,2.4c-0.1,4.6-0.1,9.3-0.2,13.9c-0.1,6.3-0.2,12.6-0.3,18.9c0,0.8,0.2,1.2,0.9,1.4
		c0.5,0.1,1,0.4,1.6,0.7c0.1-12.4,0.2-24.7,0.3-37.1c2.6-0.1,5.1-0.3,7.8-0.4c0.6,14.8,1.2,29.6,1.9,44.3c0.1,0,0.2,0,0.2,0
		c0.1-0.5,0.2-1,0.2-1.6c-0.1-4.6-0.1-9.2-0.3-13.8c-0.3-8.6-0.6-17.1-0.9-25.7c0-1.1,0-2.2,0-3.4c1.3,0,2.3,0,3.5,0
		c0,0.2,0.1,0.4,0.1,0.6c0.5,12.3,1,24.5,1.4,36.8c0.1,2.1-0.1,4.3,0,6.4c0,1.2,0.2,2.5,0.4,3.7c0.2,1.4,1,2.4,2.5,2.8
		c0.9,0.3,1.8,0.6,2.7,0.9c2.4,0.7,4.4,2.1,5.8,4.2c0.9,1.4,2.2,2.3,3.7,2.8c3.4,1.2,5.9,3.3,7.5,6.5c0.5,1.1,1.4,1.8,2.4,2.3
		c3.3,1.7,5.4,4.4,6.3,8c0.4,1.6,1.1,2.9,2.3,4c2.2,2.3,3.5,5.1,3.4,8.3c-0.1,2.9,0.2,5.5,1.4,8.1c1.1,2.4,0.9,4.9-0.1,7.4
		c-0.8,2.1-1.2,4.3-1,6.6c0.2,2.6-0.8,4.9-2.5,6.9c-0.6,0.7-1.3,1.2-1.9,1.9c-0.8,1.1-1.6,2.2-2.3,3.3c-0.3,0.5-0.5,1-0.8,1.5
		c-1.4,2.7-3.5,4.4-6.5,5c-1.9,0.4-3.6,1.1-5,2.4c-2.5,2.5-5.6,3.5-9.1,3.5c-2.4,0-2.4,0.1-4,1c-0.1-0.5-0.1-1-0.2-1.5
		c0-0.5-0.1-1-0.1-1.7c5,2.6,9,0.6,13-2.4c-0.4-0.3-0.7-0.6-1.1-0.8c-1.4-0.7-2.5-1.8-3.3-3.1c-1.1-1.8-2.6-2.6-4.7-2.6
		c-1,0-2,0.1-3.1,0.1c-0.4,0-0.9-0.1-1.3-0.2c0-0.8,0.3-1.1,0.9-1.1c1.2,0,2.4-0.1,3.6,0c0.6,0,1-0.1,1.5-0.5
		c0.6-0.6,1.3-1.1,1.9-1.6c1-0.9,2.2-1.5,3.6-1.8c2.1-0.4,3.8-1.5,4.7-3.6c0.8-2,2.1-3.8,4.1-4.9c0.2-0.1,0.3-0.5,0.3-0.8
		c0-2-0.1-4,0.1-6c0.1-1.2,0.7-2.4,1-3.6c0.1-0.4,0-1-0.2-1.3c-0.9-1.6-1.4-3.3-1.4-5.1c0-1.3-0.1-2.6-0.1-4c0-0.8-0.3-1.5-0.9-2.1
		c-2.4-2-3.4-4.7-4.2-7.6c-0.1-0.4-0.4-0.8-0.7-0.9c-3.2-1.8-5.9-4-7.4-7.5c-0.1-0.3-0.5-0.6-0.8-0.7c-3.6-0.8-6.3-3-8.7-5.7
		c-0.2-0.2-0.3-0.3-0.5-0.5c0,0-0.1,0-0.3-0.1c0,0.7,0,1.4,0,2.1c0.2,7.2,0.4,14.4,0.7,21.6c0.4,11.7,0.9,23.3,1.3,35
		c0.3,7.5,0.5,15,1.6,22.5c0.5,3.2,1.1,6.5,2.5,9.5c2.7,6,7.5,9.3,14.1,10c5.1,0.6,10.1-0.3,15-1.8c7-2.1,13.7-4.9,19.5-9.5
		c4.3-3.4,8.1-7.5,11.3-12c0.4-0.6,0.7-1.2,1.1-1.8c0.1-0.2,0.2-0.5,0.4-0.8c-7.1,0-14.1,0.8-21.1-2c0.4-0.3,0.7-0.5,0.9-0.7
		c3.4-2.2,6.7-4.5,10.1-6.7c4.5-2.9,8.4-6.5,11.9-10.5c6.6-7.4,11.7-15.6,15.3-24.8c1-2.5,1.7-5.1,2.6-7.7c0.1-0.3,0.3-0.6,0.5-1.1
		c0.6,1,1.2,1.8,1.6,2.7c4.3,9,7.2,18.3,8.1,28.3c0.9,10.1-0.4,20-3.2,29.7c-1.5,5.2-3.4,10.2-5.1,15.3c-0.1,0.2-0.1,0.3-0.3,0.7
		c-0.7-0.9-1.4-1.6-1.9-2.4c-1.6-3.1-3.1-6.2-4.5-9.3c-0.5-1.2-0.9-2.4-1.4-3.8c-0.4,0.5-0.7,0.8-0.9,1.2c-2.1,3.4-3.9,6.9-6.2,10.2
		c-10.4,15.3-14.6,21.2-32.5,32.5c-7.1,4.5-14.7,8.1-22.3,11.7c-5,2.3-9.9,4.8-14.4,8c-7.1,5.2-12.6,11.8-16.7,19.6
		c0,0.1-0.1,0.1-0.2,0.2c-0.5-0.6-1.1-1.1-1.5-1.8c-2.3-3.2-4.4-6.6-6.8-9.6c-4.1-5.1-9.1-9-14.8-12.1c-6.7-3.6-13.5-6.8-20.3-10.2
		c-9.1-4.5-17.5-9.9-25.2-16.6c-6.7-5.8-11.9-12.6-16.6-19.9c-2.5-3.8-4.8-7.8-7.2-11.7c-0.3-0.5-0.7-1-1.1-1.6
		c-2.3,5.4-4,10.9-7.9,15.5c-0.2-0.5-0.4-0.8-0.5-1.2c-3.4-8.2-6.1-16.7-7.4-25.5c-2.1-14.1-0.8-27.8,4.6-41c1-2.5,2.2-4.9,3.3-7.4
		c0.2-0.5,0.6-0.9,1.1-1.6c0.4,1.1,0.8,2,1.1,2.9c1.9,5.1,3.6,10.3,6.2,15.1c2.8,5.3,6.4,10.2,10.3,14.8c4.4,5.3,9.7,9.8,15.6,13.4
		c2.2,1.4,4.5,2.8,6.7,4.2c0.4,0.3,0.9,0.6,1.5,1.1c-6.9,2.4-13.9,2.7-21.1,1.8c0.3,0.5,0.4,0.7,0.5,0.9c6.3,11,15.8,18.1,27.7,22
		c4.8,1.6,9.7,2.9,14.8,3.2c4,0.2,7.8-0.1,11.4-2.1c3.8-2.1,6.1-5.5,7.6-9.5c1.4-3.9,2.2-7.9,2.5-12.1c0.5-9,0.9-18.1,1.3-27.1
		c0.4-10.3,0.8-20.5,1.2-30.8c0.4-10.6,0.9-21.2,1.2-31.8c0.1-3.4,0.5-2.4-2.4-4.1c-2.2-1.2-3.9-2.9-5.2-5c-0.4-0.7-1.1-1.3-1.8-1.7
		c-0.9-0.6-1.8-1-2.8-1.5c-2.4-1.1-4-3-5.1-5.3c-0.6-1.2-1.4-2.1-2.5-2.8c-1.1-0.7-2.1-1.4-3.1-2.2c-1.8-1.5-2.8-3.4-3.4-5.6
		c-0.2-0.9-0.7-1.5-1.5-2c-3.1-2.1-5.3-4.9-5.7-8.7c-0.2-1.2-0.9-2.1-1.7-2.9c-1.6-1.5-3-3.2-3.5-5.5c-0.3-1.2-0.3-2.5-0.5-3.7
		c-0.4-2.4-0.2-2.6-2.7-2.9c-2.7-0.4-5.5-0.3-8.2-0.4c-2.2-0.1-4.5-0.2-6.7-0.4c-0.9-0.1-1.5-0.6-1.7-1.5c-0.2-0.8-0.4-1.6-0.4-2.4
		c0-4.8,0-9.7,0.2-14.5c0.1-2.7-0.1-2.5,2.7-2.7c2.7-0.3,5.4-0.2,8.1-0.4c0.7,0,1.5-0.2,2.2-0.3c1.1-0.3,1.5-0.7,1.6-1.9
		c0-1-0.1-1.9-0.2-2.9c-0.5-3.6-0.1-7,1.9-10.2c0.5-0.8,0.8-1.9,0.8-2.9c-0.1-3.8,1.4-6.8,4.1-9.4c1-1,1.8-2.2,2.1-3.5
		c0.9-3.7,3-6.2,6.4-7.8c0.8-0.4,1.7-1.1,2-1.9c1.1-2.9,3.4-4.7,6.1-5.8c1.5-0.6,1.9-1.4,2-3c0.6-11,5.7-19.4,15.1-25.1
		c19.6-12,42.5,0.9,46.5,20.6c1.1,5.2,0.8,10.3-0.9,15.3c-1,3-0.4,5.6,0.6,8.3c0.3,0.9,0.8,1.7,1.3,2.5c1.9,3,1.9,6.2,0.7,9.4
		c-0.2,0.7-0.3,1.5-0.1,2.2c1,3.5,0.5,6.7-1.4,9.8c-0.7,1.2-1.2,2.7-1.8,4C200.7,111.4,200.7,111.7,200.7,112.2z M166,192.1
		c0,0.6,0,0.9,0,1.2c-0.1,7.6-0.1,15.3-0.3,22.9c-0.3,19.3-0.6,38.5-0.9,57.8c-0.2,12.6-0.2,25.1-1.6,37.6c-0.4,3.1-0.9,6.2-1.9,9.2
		c-0.8,2.4-2.5,3.7-5,3.8c-3.2,0.1-6.4,0.1-9.6-0.2c-12.5-1.1-23.7-5.8-33.8-13.3c-6.4-4.8-12.2-10.1-17.2-16.3
		c-8.2-10.2-14.2-21.5-18.8-33.7c-0.7-2-1.4-4-2.2-6.2c0,0.3,0,0.4,0,0.5c0.8,2.8,1.4,5.7,2.4,8.5c5.9,17.1,15.2,31.9,28.7,44.1
		c5.7,5.1,12.1,9.1,18.9,12.7c7.4,3.9,15.2,6.9,23.1,9.6c7.4,2.5,14.2,6.1,19.1,12.5c0.2,0.3,0.6,0.5,1,0.9c0-0.4,0-0.5,0-0.6
		c0.1-14.8,0.2-29.6,0.3-44.4c0.1-22.6,0.3-45.3,0.4-67.9c0.1-12.1,0.1-24.2,0.2-36.3c0-0.3-0.1-0.8-0.3-0.9
		C167.8,192.9,167,192.6,166,192.1z M103.8,132.8c0.5,0,0.9,0,1.4,0c6.9,0.3,13.9,0.5,20.8,0.9c11.4,0.6,22.8,1.4,34.2,2
		c10.5,0.5,21,0.1,31.5-0.5c6.8-0.4,13.7-0.8,20.5-1.1c7-0.3,14.1-0.5,21.1-0.8c1.7-0.1,3.4-0.3,5.1-0.5c0.2,0,0.6-0.3,0.7-0.5
		c0.1-0.7,0.1-1.4,0.2-2.2c-0.5,0-0.9,0-1.2,0c-4.5,0.2-9,0.3-13.5,0.5c-10.4,0.4-20.9,0.8-31.3,1.2c-13.6,0.5-27.3,0.6-40.9,0.1
		c-14.3-0.5-28.6-1.1-42.9-1.7c-1.9-0.1-3.7,0-5.6,0C103.8,130.9,103.8,131.8,103.8,132.8z M143.5,79c-0.6,0.9-1.1,1.6-1.5,2.2
		c-0.8,1.6-2,2.9-3.6,3.6c-1.9,0.9-3,2.2-3.5,4.3c-0.5,2.4-1.8,4.4-3.9,5.8c-0.6,0.4-0.8,0.8-0.7,1.5c0.3,3.3-0.4,6.3-2.5,9
		c-0.2,0.2-0.3,0.7-0.3,1c0.3,2.1,0.7,4.1,1.1,6.3c-0.1,0,0.1,0,0.3,0c3-0.1,6-0.2,9-0.4c8.6-0.4,17.2-0.9,25.7-1.4
		c4.8-0.2,9.5-0.3,14.3,0.2c2.6,0.3,5.3,0.2,8,0.1c2-0.1,2.4-0.6,2.6-2.5c0.3-2.7,1-5.2,3-7.1c0.5-0.5,0.6-1,0.5-1.7
		c-0.5-2.7-1.1-5.4,0.1-8.1c0.2-0.5-0.1-1.2-0.2-2c-3.6,2.2-6.6,4.8-10.6,5.6c0-0.2-0.1-0.3-0.1-0.4c-0.1-3.8-0.3-7.7-0.4-11.5
		c0-0.3,0.2-0.7,0.5-0.9c1-0.8,2.1-1.6,3.1-2.3c0.5-0.3,0.5-0.7,0.1-1.1c-0.7-1.1-1.5-2.1-2.1-3.2c-0.4-0.6-0.8-0.9-1.5-0.9
		c-1.8,0-3.5-0.6-5-1.5c-0.9-0.6-1.8-1.3-2.8-1.9c-0.3-0.2-0.8-0.3-1.1-0.2c-2.5,0.6-5,0.7-7.4-0.3c-1.3-0.5-2.3-0.5-3.5,0.3
		c-1.5,1-3.1,1.6-4.9,1.8c-0.7,0.1-1.3,0.1-2.1,0.1c0.5,1.6,1.3,2.9,2.2,4.2c1.4,1.9,3.1,3.5,5.2,4.7c0.9,0.5,1.2,1.1,1.2,2.2
		c-0.2,2.2-0.2,4.4-0.2,6.7c0,1.5,0,3,0,4.6C153.6,92.8,147.6,87.1,143.5,79z M268.2,256.6c-0.8,2.1-1.7,4.3-2.5,6.4
		c-3.6,10-8.4,19.3-14.8,27.8c-6.8,9-14.7,17-24.5,22.9c-8.7,5.2-17.9,8.9-27.9,10.5c-2.1,0.3-4.1,0.8-6.1,1.6
		c-2.2,0.8-3.1,2.7-3.1,5.1c1.6,0.2,3,0,4.5-0.3c5.4-1.2,10.5-3.2,15.6-5.3c12.8-5.3,24.3-12.6,33.9-22.8
		c9.5-10.1,16.6-21.6,21.8-34.4C266.5,264.3,267.7,260.6,268.2,256.6z M159.2,270.6c-0.1,0-0.1,0-0.2,0c0,0.2,0,0.4,0,0.6
		c-0.4,4.6-0.6,9.1-1.1,13.7c-0.5,4.3-1.5,8.5-3.4,12.4c-2.2,4.5-5.6,7.8-10.6,9c-3.3,0.7-6.6,0.6-9.8-0.1
		c-3.9-0.8-7.7-1.9-11.5-2.8c-0.3-0.1-0.6-0.1-0.9-0.2c0.9,0.5,1.8,0.9,2.6,1.3c4,1.9,8.2,3.2,12.6,3.9c3.2,0.5,6.4,0.7,9.6-0.2
		c4.8-1.4,7.9-4.7,9.7-9.2c3.4-8.3,4.2-16.9,3.6-25.7C159.5,272.3,159.3,271.4,159.2,270.6z M221.7,303.6c0-0.1-0.1-0.2-0.1-0.3
		c-1.4,0.4-2.7,0.7-4.1,1.1c-4,1.3-8.1,2.3-12.4,2.3c-7.6,0.1-13.1-3.1-16.2-10c-1.1-2.4-1.9-5-2.5-7.6c-1.3-5.5-1.5-11.1-1.7-16.7
		c0-0.3,0-0.6-0.1-0.9c-0.1,0-0.2,0-0.3,0c-0.2,1.2-0.5,2.4-0.5,3.5c0.1,3.9,0.2,7.8,0.6,11.7c0.4,3.9,1.1,7.8,2.6,11.5
		c3,7.6,8.4,11,16.5,10.5c3.6-0.2,7.1-1.1,10.5-2.2C216.5,305.5,219.1,304.5,221.7,303.6z M191,66.1c-0.1-1-0.2-1.8-0.3-2.6
		c-1-8.4-7.3-15.1-15.6-16.5c-8.6-1.5-16.1,2.4-20.6,10.2c-0.3,0.5-0.5,1.1-0.6,1.7c-0.1,0.5,0,1,0,1.6c0.6,0,1.2,0,1.8-0.1
		c0.2,0,0.3-0.2,0.5-0.3c3.2-2.4,6.8-2.8,10.5-1.5c1.7,0.6,3.2,0.6,4.9,0.3c3.5-0.6,6.6,0.2,9.2,2.7c1,1,2.2,1.4,3.6,1.6
		c1.5,0.1,2.9,0.7,4.2,1.5C189.3,65.2,190,65.6,191,66.1z M154.7,168.8c-0.7,2-1.3,3.9-2,5.8c-0.8,2.1-0.6,4.1,0.8,5.9
		c0.9,1.1,1.9,2.2,3,3.2c1.4,1.2,3,1.8,4.9,2.2c-0.3-2.1,0.3-4,1.1-5.8c0.5-1.1,0.6-2.3,0.1-3.4
		C161.3,172.7,158.4,170.2,154.7,168.8z M210.2,236.6c0.3-0.2,0.7-0.3,0.9-0.6c1.1-1.3,2.6-1.7,4.1-2.1c1.7-0.5,2.7-1.5,3.3-3.2
		c1.5-4.5-0.4-8.2-2.8-11.9c-0.3,0.4-0.7,0.6-0.8,0.9c-0.7,1.7-2,2.7-3.5,3.7c-1.6,1.1-2.5,2.6-2.7,4.6
		C208.5,231,209.3,233.8,210.2,236.6z M202.5,215.6c0-2.2,1-3.8,2.3-5.3c0.8-0.9,0.9-2.2,0.6-3.3c-0.5-2.3-1.7-4.2-3.4-5.8
		c-1.5-1.4-3.4-2.4-5.5-2.9c0.3,2.3-0.5,4.2-1.3,6.1c-0.3,0.7-0.5,1.7-0.3,2.5C195.8,211,198.4,213.8,202.5,215.6z M219.2,246.8
		c-0.4,0.1-0.8,0.1-1,0.3c-1.5,0.9-3.2,0.9-4.9,0.7c-0.7-0.1-1.5,0-2.1,0.2c-3.3,1.3-5.6,3.7-6.8,7c-0.2,0.6-0.1,0.9,0.5,1
		c1.6,0.2,3,1,4.3,1.9c0.9,0.6,1.9,0.7,3,0.5c1.4-0.3,2.6-0.9,3.6-1.9C218.4,254,219.2,250.6,219.2,246.8z M164.2,176.8
		c0.3,2.1-0.5,4-1.2,5.8c-0.5,1.2-0.4,2.5,0.2,3.7c1.7,3.7,4.8,5.8,8.7,6.8c0.2,0,0.3,0,0.5,0c0-1-0.1-2,0-3c0.2-1,0.7-1.9,0.9-2.9
		c0.2-0.8,0.3-1.6,0.1-2.4C172.6,181,168.2,177.2,164.2,176.8z M212.6,260c-0.3,0-0.6,0-0.8,0c-1.3,0-2.6-0.1-3.6-1.1
		c-1.8-1.7-3.8-1.9-6.1-1.6c-2.9,0.5-5.2,1.9-7.1,3.9c1.2,1.3,2.5,2.5,3.5,3.9c1.1,1.4,2.5,2.2,4.2,2.2c4,0.1,8.5-3,9.8-6.8
		C212.5,260.3,212.5,260.2,212.6,260z M202.9,98.1c-0.4,0.2-0.8,0.2-1.1,0.4c-1.4,0.8-2.9,1.1-4.5,1.2c-1,0.1-2.1,0.4-2.9,0.9
		c-1.5,0.9-2.5,2.3-3.3,3.9c-0.7,1.6-1.1,3.2-1.2,4.8c1.9,0.2,3.7,0.3,5.5,0.6c2,0.3,3.5-0.2,4.9-1.6
		C203.1,105.6,203.5,102.1,202.9,98.1z M134.3,86.7c-2.1,0.2-4-0.5-5.8-1.2c-1.1-0.4-2.2-0.3-3.2,0.2c-3.6,1.5-6.4,6.4-5.8,10.2
		c1.6-0.1,3.3-0.4,4.9-0.2c3.8,0.4,6.3-1.3,8.3-4.3C133.5,90,134.1,88.5,134.3,86.7z M170.6,60.3c0.2,0.4,0.2,0.8,0.4,1
		c0.9,1.3,1.1,2.7,1.1,4.3c0.2,4.7,4.5,8.4,9.1,8.1c0.4-1.9,0.7-3.8,1.1-5.6c0.4-1.9-0.2-3.6-1.6-4.9
		C178,60.4,174.5,59.9,170.6,60.3z M117,109.8c1.6-2,3.7-2,5.8-2.3c0.8-0.1,1.7-0.6,2.4-1.1c2.1-1.6,3.3-3.8,3.6-6.4
		c0.2-1.1,0.2-2.3,0.3-3.3c-2.1,0.1-4,0.1-5.9,0.2c-2.3,0-4,0.9-5.1,2.9c-0.3,0.5-0.5,0.9-0.7,1.4C116.2,103.9,116,106.6,117,109.8z
		 M185.5,190.9c0.3,2-0.1,3.8-0.7,5.6c-0.6,1.6-0.4,3.2,0.5,4.7c1.7,3.1,4.3,5,7.6,6c0.2,0.1,0.4,0.1,0.8,0.1c0-2.4,0.8-4.4,1.5-6.5
		c0.2-0.7,0.3-1.6,0.1-2.3C194.1,194.9,189.4,191.2,185.5,190.9z M151,177.7c-0.2-2.3,0.5-4,1.5-5.7c0.6-1,0.8-2.1,0.5-3.2
		c-0.7-3.8-3-6.5-6.4-8.1c-0.2-0.1-0.4-0.1-0.7-0.2c-0.1,0.2-0.1,0.3-0.1,0.4c0,1.7-0.7,3.1-1.9,4.2c-0.9,0.9-1.3,2.2-1.1,3.5
		c0.4,4.1,2.8,6.7,6.3,8.5C149.7,177.3,150.2,177.5,151,177.7z M174.6,183.9c0,1.1,0.1,2.2,0,3.3c-0.2,1.1-0.6,2.1-0.9,3.1
		c-0.3,1.2-0.1,2.4,0.5,3.5c1.6,3.1,4.2,5,7.5,6c0.5,0.2,1,0.2,1.7,0.4c-0.4-2.2,0.2-4.2,0.8-6.1c0.4-1.3,0.2-2.6-0.5-3.8
		c-1.2-2-2.7-3.7-4.8-4.9C177.6,184.5,176.2,184.1,174.6,183.9z M208.1,225.3c0.2-0.3,0.5-0.4,0.5-0.6c0.7-1.7,2.2-2.5,3.5-3.5
		c1.2-0.9,1.7-2.2,1.7-3.7c0-3.7-1.7-6.5-4.5-8.8c-0.7-0.5-1.4-1-2.3-1.5c-0.3,2.5-1.3,4.3-2.8,6.1c-0.4,0.5-0.6,1.4-0.6,2.1
		c0,1.2,0.1,2.4,0.4,3.5C204.7,221.3,205.9,223.5,208.1,225.3z M156.8,61.3c2.2,0.8,2.7,2.7,3.4,4.5c0.3,0.7,0.7,1.5,1.3,2
		c2.7,2.4,5.9,3.1,9.4,2.4c0.8-0.2,0.9-0.5,0.7-1.3c-0.3-1.4-0.6-2.7-0.8-4.1c-0.2-2-1.1-3.5-2.9-4.4c-1.8-1-3.7-1.3-5.7-1.1
		C160.4,59.5,158.6,60,156.8,61.3z M139,151.1c-0.2,0.4-0.4,0.8-0.7,1.2c-0.6,0.9-1,2-1.8,2.7c-1.9,1.7-2.3,3.8-1.7,6.1
		c1,3.6,3.2,6.1,6.5,7.5c0.5-1.3,0.9-2.5,1.4-3.6c0.3-0.6,0.7-1.2,1.1-1.8c1.1-1.8,1.3-3.7,0.5-5.7
		C143.1,154.9,141.7,152.6,139,151.1z M144.5,65.9c0.3,0.2,0.5,0.4,0.8,0.5c1.5,0.5,2.5,1.5,3.4,2.8c1.3,1.9,3.3,2.9,5.7,2.8
		c1.4-0.1,2.8-0.4,4.2-0.7c1.1-0.3,2.1-0.9,2.9-2c-1.6-1.2-2.4-2.9-3.1-4.7c-0.5-1.2-1.4-2-2.7-2.4C152,61.1,147.8,62.1,144.5,65.9z
		 M132.8,158.7c0.3-0.5,0.7-1,0.8-1.4c0.5-1.2,1.2-2.3,2.1-3.2c1.1-1,1.7-2.4,1.7-3.9c0.1-3.8-1.5-6.7-4.4-9.1
		c-0.1-0.1-0.3-0.2-0.6-0.3c-0.4,1.9-1.4,3.1-2.9,4c-1.6,1-2.2,2.4-2.1,4.2C127.5,153.2,129.6,156.2,132.8,158.7z M151.2,72.5
		c-2.2-0.3-3.2-1.9-4.4-3.4c-0.7-0.9-1.7-1.4-2.9-1.5c-4-0.3-7,1.5-9.3,4.6c-0.4,0.5-0.6,1.1-0.8,1.6c0.2,0.1,0.2,0.2,0.2,0.2
		c0.2,0.1,0.4,0.1,0.6,0.2c1.5,0.1,2.7,0.9,3.9,1.9c0.7,0.6,1.6,1,2.5,1.2C144.5,78,149.3,75.8,151.2,72.5z M125,84.2
		c2.4-0.6,4.3,0.1,6.2,1c0.7,0.3,1.6,0.4,2.5,0.3c3.2-0.3,7.1-3.6,8.1-6.8c-0.6-0.2-1.2-0.4-1.7-0.7c-1-0.5-2-0.9-2.8-1.5
		c-1.5-1.2-3.1-1.5-4.9-1C128.2,76.9,126.1,80,125,84.2z M201,84.4c-1,2.3-3,3.2-5,4.2c-0.7,0.3-1.3,1.1-1.8,1.7
		c-1,1.5-1.5,3.3-1.6,5.1c-0.1,1.4,0,2.8,0.7,4c2.1-0.4,4.2-0.8,6.3-1.3c0.7-0.2,1.5-0.6,2-1.2C204.4,93.8,204.1,87.6,201,84.4z
		 M219.1,232.8c-0.2,0.2-0.4,0.3-0.6,0.5c-1.1,1.2-2.4,1.9-4,2.3c-0.7,0.2-1.5,0.5-2.1,1c-3.2,2.9-3.5,6.6-3.2,10.6
		c0.6-0.1,1-0.2,1.4-0.2c1.2-0.1,2.4-0.4,3.6-0.4c2.5,0.2,4.1-1,5.2-3.1c1.2-2.4,1.5-4.9,1.1-7.5
		C220.4,234.8,220.1,233.7,219.1,232.8z M183.6,64.4c0,1,0.1,2,0,2.9c-0.2,1.2-0.5,2.5-0.8,3.7c-0.6,2.7,0.7,6,3,7.5
		c0.3-0.3,0.6-0.5,0.9-0.8c2.3-2.6,3.4-5.7,3.9-9.1c0-0.2,0-0.5-0.2-0.7C188.7,65.9,186.5,64.5,183.6,64.4z M126.1,147.6
		c0.4-0.7,0.6-1.2,0.9-1.7c0.6-0.8,1.2-1.6,2-2.1c2.4-1.6,3.5-4.3,2.7-7.2c-3,0-6,0-9,0c-0.2,0-0.6,0.3-0.6,0.6
		c-0.1,0.9-0.3,1.7-0.3,2.6C121.9,143,123.9,145.3,126.1,147.6z M126.5,107.5c-2.2,0.6-4.3,1.2-6.4,1.7c-1.9,0.5-3.1,2-3.3,4.1
		c3.4-0.2,6.7-0.4,10.1-0.5C127.3,110.9,126.9,109.2,126.5,107.5z"/>
	<path class="st1" d="M93,310.4c0.6,0.7,1.3,1.4,2.1,2.2c-1.8,1.6-3.8,3-4.7,5.4c-1,2.3-0.7,4.7-0.6,7.3c0.4-0.3,0.7-0.5,1.1-0.6
		c1-0.4,2.1-1.1,3.1-1c3.3,0.4,5.4-1.3,7.2-3.6c0.3-0.3,0.5-1.1,1.1-0.6c0.5,0.4,0.4,1.1-0.1,1.5c-1.3,1.1-1.4,2.5-1.1,4
		c0.5,2.1,0.4,4.1-0.3,6.1c-0.5,1.5-0.3,2.7,0.8,3.9c1.6,1.8,2.2,4,2.3,6.3c0.1,0.8,0.3,1.3,1,1.6c2.5,1.1,4.3,2.9,5.5,5.4
		c0.5,1.2,1.3,1.8,2.7,1.8c1.7,0,3.3,0.6,4.8,1.4c0.7,0.4,1.4,0.8,2.2,1.1c0.4,0.2,1,0.2,1.3,0c2.8-1.1,5.6-1.9,8.7-1.1
		c0.5,0.1,1.2-0.1,1.7-0.3c0.4-0.2,0.8-0.5,1.2-0.8c2.6-2,5.5-2.9,8.8-2.6c0.6,0,1-0.2,1.3-0.7c0.5-1,1.3-1.7,2.4-1.9
		c0.4-0.1,0.8,0,1.3,0.2c-0.9,0.8-1.8,1.7-2.6,2.5c0.1,0.2,0.1,0.3,0.1,0.3c1.7,0.8,3,2.1,4.2,3.5c0.2,0.3,0.6,0.5,0.8,0.8
		c1.7,1.6,3.6,2.1,5.8,1.1c1-0.4,1.9-0.6,3.2,0.1c-0.8,0.4-1.3,0.8-2,1c-0.8,0.2-1.7,0.3-2.5,0.3c-1.3,0.1-2.4,0.6-3.2,1.6
		c-1.9,2.2-4.4,3.3-7.3,3.5c-2.1,0.1-3.9,0.7-5.6,2c-2.1,1.7-4.6,2.3-7.3,2c-2.3-0.3-4.6-0.1-6.8,0.7c-3.1,1.1-6.2,0.7-9-0.9
		c-2.1-1.2-4.3-2-6.6-2.4c-3.6-0.7-6.3-2.7-8-6.1c-0.6-1.1-1.6-2.1-2.7-2.8c-3.5-2.2-5.3-5.4-5.7-9.4c-0.1-1.2-0.5-2.1-1.2-3
		c-2-2.6-2.8-5.6-2.5-8.9c0.1-1.1,0.6-2.1,0.7-3.1c0.1-0.9,0.3-1.9,0.1-2.7c-0.8-3.8-0.3-7.2,2.1-10.3c0.4-0.5,0.8-0.9,1-1.4
		C92.2,312.6,92.6,311.5,93,310.4z M98.7,351.8c0.2-0.8,0.4-1.6,0.6-2.3c0.3-1.1,0.7-2.1,1.7-2.7c1-0.6,1.5-1.6,1.5-2.6
		c0-1.7-0.2-3.5-0.5-5.2c-0.2-1.2-0.7-2.4-1.2-3.5c-0.5-0.9-1.2-1.1-1.9-0.6c-1.4,1-2.8,1.9-4.2,2.9c-0.9,0.6-1.6,1.4-1.8,2.5
		C91.8,344.5,94.6,350,98.7,351.8z M91.8,339.7c0.5-1.8,1.7-2.7,3-3.5c0.7-0.4,1.3-0.8,2-1.2c1.1-0.8,2-1.8,2.5-3.1
		c1-2.7,0.7-5.5,0.3-8.2c-2.1,0.5-4.1,0.9-6.1,1.3c-1.6,0.3-2.7,1.2-3.4,2.6c-1.9,3.8-1.4,7.4,0.6,11
		C90.9,339,91.3,339.2,91.8,339.7z M103.7,343.8c-0.3,2.1-1.3,3.5-2.5,5c-0.9,1.1-1.3,2.3-1,3.8c0.9,4.3,5.6,8.1,10,8.1
		c0-0.1,0.1-0.1,0.1-0.2c0-0.2,0-0.4-0.1-0.5c-0.5-1.6-0.4-3.2,0.1-4.8c0.3-0.8,0.5-1.8,0.3-2.6
		C109.9,348.4,107.6,345.6,103.7,343.8z M150.3,355c-0.5-0.3-0.9-0.7-1.3-0.8c-1-0.4-1.8-1.1-2.3-2.1c-1.7-2.9-4.4-3.5-7.4-3.2
		c-2.5,0.3-4.4,1.8-6.6,2.9c0.5,0.5,0.9,0.9,1.2,1.3c0.7,0.9,1.6,1.8,2.1,2.9c1,2,2.6,2.9,4.7,3c0.8,0,1.6,0.1,2.3,0
		C145.8,358.5,148.3,357.4,150.3,355z M138.4,359.7c-1.9-0.7-3.1-1.7-3.7-3.4c-0.6-1.6-1.8-2.6-3.4-3.2c-3-1.1-5.9-1-8.9,0.2
		c-0.3,0.1-0.6,0.1-0.8,0.2c0.8,1.9,1.5,3.9,2.4,5.9c0.9,1.9,2.5,3.1,4.6,3.4c2.7,0.3,5.2-0.2,7.6-1.5
		C136.9,361,137.5,360.3,138.4,359.7z M111.8,351.1c-0.1,1.2-0.1,2.2-0.2,3.3c-0.1,0.8-0.2,1.6-0.3,2.4c-0.3,2.1,0.5,3.7,2.1,4.9
		c3.1,2.4,8.3,3,11.3,1.3c-0.1-0.2-0.2-0.4-0.4-0.6c-1.5-1.4-2-3.2-2.3-5.1c-0.1-0.7-0.5-1.5-1-2.1
		C118.6,352.5,115.4,351.4,111.8,351.1z"/>
	<path class="st1" d="M145,271c0.4,0.4,0.7,0.7,1.1,1c1,0.8,1.7,1.7,2,2.9c0.5,2,1.8,3.2,3.8,3.7c0.8,0.2,1.7,0.3,2.2,1.4
		c-0.6,0.1-1.1,0.1-1.6,0.2c-0.5,0.1-1.1,0-1.6,0.3c-1.8,0.9-3.6,2-5.7,2.3c-1.2,0.1-2.3,0.1-3.5,0.1c-1.1-0.1-1.9,0.3-2.7,1.1
		c-1.9,2-4.2,3.3-7,3.6c-1.5,0.2-2.6,0.8-3.5,2c-1.5,2.1-3.4,3.8-6.1,4.5c-1.6,0.4-2.8,1.3-3.3,3c-0.3,1-0.8,1.1-1.9,0.7
		c0.4-0.9,0.9-1.7,1.4-2.7c-0.6-0.1-1-0.2-1.4-0.3c-1.2-0.3-2.3-0.7-3.2-1.7c-1.3-1.4-2.9-1.6-4.7-1.1c-0.9,0.3-1.9,0.6-3.1,0.2
		c0.4-0.3,0.6-0.6,0.9-0.8c1.1-0.7,1.9-1.5,2.6-2.7c1.6-2.9,4-4.9,7.2-5.8c1.3-0.4,2.4-1,3.1-2.2c1.8-2.7,4.3-4.3,7.4-5
		c0.5-0.1,1.1-0.2,1.6-0.4c1-0.2,1.8-0.7,2.6-1.4c2.8-2.5,6.2-4,10.1-3.5c1,0.1,1.9,0,2.8-0.5c2-1.1,4-2.2,6.4-2.3
		c1-0.1,2,0,2.9,0.2c0.2,0,0.4,0.4,0.6,0.6c-0.2,0.2-0.5,0.5-0.7,0.5c-1.3,0.1-2.5,0.1-3.8,0.2C148.2,269.2,146.6,270,145,271z
		 M138.5,282.5c-0.3-0.2-0.5-0.4-0.7-0.5c-1.4-0.7-2.4-1.8-3.2-3.2c-0.8-1.4-2.3-2.1-3.9-2.2c-4.1-0.1-7.3,1.8-9.7,5.1
		c-0.1,0.1-0.1,0.3-0.3,0.6c2.1,0.1,3.4,1.3,4.7,2.7c0.9,1,2,1.5,3.3,1.6c3.3,0.3,6.2-0.7,8.6-2.9C137.7,283.5,138,283,138.5,282.5z
		 M110.2,290.3c0.3,0.1,0.4,0.2,0.5,0.2c1.8,0.2,3.3,0.9,4.7,2.1c1.3,1.2,3,1.4,4.7,1.1c3.2-0.6,5.6-2.3,7.6-4.8
		c0.2-0.3,0.4-0.6,0.6-1c-2.2-0.2-3.4-1.5-4.7-2.9c-1.1-1.2-2.5-1.5-4.1-1.3C115.1,284.1,112.2,286.6,110.2,290.3z M132.1,275.7
		c2.2,0.7,3.5,1.9,4.4,3.8c0.3,0.6,0.9,1.1,1.5,1.3c0.9,0.4,2,0.7,3,0.9c3.1,0.6,5.9-0.9,8.8-1.9c-0.2-0.4-0.4-0.7-0.6-1
		c-1.3-1.2-2-2.7-2.7-4.2c-0.7-1.6-2-2.5-3.7-2.9c-3.5-0.7-6.6,0.2-9.4,2.4C132.9,274.5,132.6,275.1,132.1,275.7z"/>
	<path class="st1" d="M162.8,110.2c0-0.3,0-0.6,0-0.8c0.2-6.6,0.4-13.2,0.7-19.7c0.1-3,0.4-5.9,0.9-8.9c0.5-3.4,3.7-5.8,7.2-5.8
		c3.5,0,6.7,2.4,7.2,5.8c0.5,3.5,0.9,7.1,1.1,10.7c0.3,6,0.4,12,0.6,17.9c0,0.2,0,0.4,0,0.7c-1,0-2,0-3,0c-0.2,0-0.4-0.5-0.4-0.7
		c-0.1-3.6-0.3-7.1-0.4-10.7c-0.1-4.4-0.1-8.8-0.2-13.3c0-1.4-0.3-2.8-0.7-4.1c-0.6-2.1-2.1-3-4.2-3c-2,0-3.5,1-4.1,3.1
		c-0.4,1.5-0.7,3.1-0.7,4.6c-0.2,6.9-0.4,13.9-0.6,20.8c0,0.9-0.1,1.8-0.2,2.7c0,0.2-0.2,0.5-0.4,0.5
		C164.7,110,163.8,110.1,162.8,110.2z"/>
	<path class="st1" d="M175.7,109.8c-2.1,0-4,0-6,0c-0.2,0-0.5-0.5-0.5-0.8c-0.1-3.6-0.1-7.2-0.1-10.8c0-4.6,0.1-9.2,0.2-13.8
		c0-0.9,0.1-1.9,0.3-2.8c0.3-1.3,1.1-1.8,2.5-1.8c1.3,0,2.1,0.6,2.3,1.8c0.2,1.2,0.3,2.4,0.3,3.7c0.3,7.3,0.6,14.6,0.9,22
		C175.7,108.1,175.7,109,175.7,109.8z"/>
</g>
</svg>
